<?xml version="1.0" encoding="UTF-8"?>
<!DOCTYPE svg PUBLIC "-//W3C//DTD SVG 1.1//EN" "http://www.w3.org/Graphics/SVG/1.1/DTD/svg11.dtd">
<!-- Creator: CorelDRAW X7 -->
<svg xmlns="http://www.w3.org/2000/svg" xml:space="preserve" width="1000mm" height="1000mm" version="1.1" style="shape-rendering:geometricPrecision; text-rendering:geometricPrecision; image-rendering:optimizeQuality; fill-rule:evenodd; clip-rule:evenodd"
viewBox="0 0 1000000 1000000"
 xmlns:xlink="http://www.w3.org/1999/xlink">
 <defs>
  <style type="text/css">
   <![CDATA[
    .fil3 {fill:#1454A3}
    .fil2 {fill:white}
    .fil0 {fill:#404040;fill-rule:nonzero}
    .fil4 {fill:#ED0014;fill-rule:nonzero}
    .fil1 {fill:url(#id0)}
   ]]>
  </style>
  <linearGradient id="id0" gradientUnits="userSpaceOnUse" x1="471434" y1="855208" x2="512780" y2="825434">
   <stop offset="0" style="stop-opacity:1; stop-color:#B22949"/>
   <stop offset="1" style="stop-opacity:1; stop-color:#EB304E"/>
  </linearGradient>
 </defs>
 <g id="Слой_x0020_1">
  <metadata id="CorelCorpID_0Corel-Layer"/>
  <g id="_912426080">
   <g>
    <path class="fil0" d="M806016 830163c-2156,-259 -4330,-423 -6238,-423 -7919,0 -16132,1976 -16132,11578l0 29394 -3264 0 0 -29592c0,-9995 6729,-14351 19396,-14351 2010,0 4090,146 6238,402l0 2992zm93491 57573l-3264 0 0 -59283c3560,-1385 8315,-2474 13164,-2474 14349,0 23551,7423 23551,22169 0,14053 -9399,22564 -22560,22564 -1388,0 -2880,-106 -4345,-314l0 -2869c1355,205 2788,311 4345,311 12269,0 19194,-8311 19194,-19692 0,-12568 -7619,-19300 -20185,-19300 -3763,0 -7525,595 -9900,1483l0 57405zm-16329 -60967l3267 0 0 42357c-4755,991 -9206,1586 -13361,1586 -12668,0 -19400,-4356 -19400,-14348l0 -29595 3268 0 0 29394c0,9601 8212,11578 16132,11578 3066,0 6826,-394 10094,-987l0 -39985zm-56216 41071c-10390,0 -17616,-7818 -17616,-19494 0,-11681 7226,-19498 17616,-19498 10393,0 17615,7817 17615,19498 0,11676 -7222,19494 -17615,19494zm0 -41861c-12270,0 -20978,9103 -20978,22367 0,13262 8708,22366 20978,22366 12272,0 20981,-9104 20981,-22366 0,-13264 -8709,-22367 -20981,-22367zm-59352 39785c-3366,1385 -6334,1878 -10193,1878 -12968,0 -20094,-7620 -20094,-19494 0,-11483 7821,-19300 21278,-19300 3366,0 6238,497 9009,1385l0 35531zm-33649 -17616c0,14944 9794,22367 23456,22367 3859,0 8113,-793 10193,-2080l0 1582c0,11681 -7226,15541 -15442,15541 -4846,0 -8906,-990 -12568,-3071l0 3366c2573,1583 7423,2672 12568,2672 9901,0 18705,-5344 18705,-18010l0 -42062c-3067,-1488 -8311,-2474 -12272,-2474 -14550,0 -24640,8311 -24640,22169z"/>
    <path class="fil0" d="M642189 836621c2021,-813 4850,-1112 7280,-1112 7489,0 12649,4349 12649,12138 0,9188 -5715,13343 -13358,13449l0 10623c201,0 407,5 611,5 15682,0 25093,-8798 25093,-24479 0,-14269 -10014,-22663 -24790,-22663 -7485,0 -14874,1721 -19732,3742l0 60609 12247 0 0 -52312zm68397 98c-1926,-911 -4454,-1414 -7488,-1414 -7386,0 -12345,4553 -12345,12546 0,8599 5361,13460 13965,13460 1516,0 3844,-106 5868,-508l0 -24084zm12142 32885c-5365,1418 -12346,2120 -18417,2120 -15583,0 -25907,-8293 -25907,-23471 0,-14366 9615,-23671 23682,-23671 3136,0 6476,398 8500,1414l0 -20853 12142 0 0 64461zm-111775 -32885c-1923,-911 -4452,-1414 -7493,-1414 -7378,0 -12338,4553 -12338,12546 0,8599 5362,13460 13961,13460 1521,0 3845,-106 5870,-508l0 -24084zm12140 32885c-5361,1418 -12341,2120 -18412,2120 -15583,0 -25904,-8293 -25904,-23471 0,-14366 9612,-23671 23679,-23671 3135,0 6472,398 8497,1414l0 -20853 12140 0 0 64461z"/>
    <path class="fil1" d="M492175 778163l-33 0 -33 0 -12 0 -33 0 -33 0c-683,9 -1361,154 -1878,442l0 0 -48691 26537 54546 31759c508,274 892,932 892,1524l0 0 0 46327c0,581 -416,1250 -928,1524l0 0 -2932 1630c-244,128 -555,197 -881,197l0 0 -54 0c-355,8 -680,-62 -936,-197l0 0 -2949 -1630c-501,-266 -907,-940 -907,-1524l0 0 0 -41298c-25,-299 -248,-668 -489,-811l0 0 -48060 -27974 0 54799c-3,1221 863,2734 1919,3359l0 0 49500 29190c529,310 1227,464 1926,461l0 0c698,0 1392,-147 1921,-461l0 0 49508 -29190c1052,-629 1914,-2134 1911,-3359l0 0 0 -54799 -32567 18976c-504,292 -1291,271 -1780,-33l0 0 -2891 -1717c-230,-147 -450,-381 -614,-658l0 0c-8,-19 -15,-33 -25,-52l0 0c-187,-295 -289,-618 -300,-907l0 0 -77 -3369c-18,-562 355,-1253 858,-1549l0 0 34698 -20218 -48691 -26537c-521,-290 -1201,-433 -1885,-442z"/>
   </g>
   <g>
    <path class="fil2" d="M515990 111984c265983,-52543 474438,42588 465610,212489 -8826,169892 -231604,350219 -497592,402763 -265980,52544 -474443,-42586 -465608,-212488 8825,-169894 231602,-350219 497590,-402764z"/>
    <path class="fil3" d="M719395 202225c-33864,-15915 -70755,-25892 -107758,-31032 -42832,-5944 -86586,-5527 -129421,162 -74795,9937 -152650,39370 -217836,76911 -75628,43555 -154052,110081 -187927,193936 73722,-98063 175996,-157749 288200,-191125 -98765,38498 -209391,133970 -199903,250401 4595,56088 49051,104827 113539,135448 71926,34150 157710,40947 235911,31435 145851,-17745 349298,-122984 409302,-271347 -73627,97926 -175734,157580 -287767,190976 88852,-34760 187142,-115569 198891,-216220 10716,-80402 -47034,-137486 -115231,-169545zm-48462 278016l622 -2817c2955,-13414 -9848,-14653 -22924,-14653 -17584,0 -29440,2141 -33266,19500 -2657,12061 3154,17922 25022,17922 7891,0 9870,1240 8852,5862 -1017,4621 -3446,5410 -11336,5410 -6537,0 -9407,-789 -8166,-6425l-19388 0c-3799,17246 5409,18937 25473,18937 19275,0 28916,-2818 32740,-20177 3277,-14879 -5095,-17809 -25047,-17809 -9581,0 -9573,-2593 -8928,-5524 771,-3494 1932,-5185 11287,-5185 5299,0 7290,676 6798,4959l18261 0zm-65828 0l621 -2817c2956,-13414 -9847,-14653 -22923,-14653 -17585,0 -29441,2141 -33267,19500 -2657,12061 3155,17922 25023,17922 7890,0 9870,1240 8852,5862 -1018,4621 -3446,5410 -11337,5410 -6537,0 -9406,-789 -8166,-6425l-19388 0c-3798,17246 5410,18937 25474,18937 19275,0 28915,-2818 32739,-20177 3278,-14879 -5094,-17809 -25046,-17809 -9581,0 -9574,-2593 -8928,-5524 771,-3494 1932,-5185 11287,-5185 5298,0 7290,676 6798,4959l18261 0zm-66660 16570l720 -3269c5314,-24121 128,-30771 -22077,-30771 -23785,0 -30733,8002 -35750,30771 -4867,22095 -1068,30435 22264,30435 16345,0 29205,-1578 33228,-19838l-19389 0c-1365,6199 -4884,6312 -10858,6312 -8003,0 -8861,-3270 -6576,-13640l38438 0zm-36080 -10707c1715,-7778 4529,-9807 11405,-9807 6538,0 9582,1015 7645,9807l-19050 0zm-50565 -22207l-19387 0 -13038 59178 19387 0 7823 -35506c1067,-4847 3087,-9920 8950,-9920 4621,0 4404,5073 3485,9244l-646 2930 17472 0 1044 -4734c2384,-10822 3902,-22318 -9624,-22318 -7214,0 -13069,3043 -17152,9806l-226 0 1912 -8680zm-81527 50273l902 0c1370,8116 7196,9807 14297,9807 16232,0 24072,-7439 28045,-25475l2979 -13526c3453,-15668 -3223,-22205 -17539,-22205 -8454,0 -15200,2479 -19217,10482l-902 0 2512 -9356 -19387 0 -18675 84765 19387 0 7598 -34492zm24948 -20628c-2955,13415 -4891,15556 -13796,15556 -8680,0 -9562,-2141 -6583,-15668 2509,-11385 4945,-15781 13511,-15781 8906,0 9401,4396 6868,15893zm-41375 -29645l-22544 0 -10702 16344 -3162 -16344 -22431 0 9083 27842 -24488 31336 23333 0 12525 -19501 4156 19501 22770 0 -10228 -31336 21688 -27842zm-72740 32914l720 -3269c5314,-24121 128,-30771 -22078,-30771 -23784,0 -30732,8002 -35749,30771 -4867,22095 -1068,30435 22264,30435 16344,0 29205,-1578 33228,-19838l-19389 0c-1365,6199 -4884,6312 -10858,6312 -8003,0 -8861,-3270 -6576,-13640l38438 0zm-36080 -10707c1714,-7778 4529,-9807 11404,-9807 6539,0 9583,1015 7646,9807l-19050 0zm453620 -143814l24518 0c10442,0 12274,3165 9940,13762 -2538,11527 -3682,13829 -16020,13829l-24520 0 6082 -27591zm-11797 53534l24520 0c9492,0 11679,5855 9696,14870l-5353 24297 31639 0 6293 -28568c2962,-13446 -2797,-19616 -16720,-21040l278 -1266c19836,-4588 23151,-8133 28482,-32336 6064,-27524 -4375,-35436 -31901,-35436l-61061 0 -26140 118646 31639 0 8628 -39167zm-43041 -42303l1081 -4903c6308,-28634 -9732,-33380 -40738,-33380 -31006,0 -51141,3797 -58286,36227 -5089,23096 5945,29740 18498,31639l29239 4429c12713,1898 12933,6644 11852,11547 -2195,9967 -7448,11550 -22318,11550 -15503,0 -19654,-1267 -16935,-13606l-30374 0c-7842,35594 8214,39549 41594,39549 44610,0 52876,-6644 60125,-39549 3485,-15819 -1523,-24677 -16523,-27684l-29048 -6012c-12855,-2689 -16319,-3479 -14472,-11863 1464,-6644 3848,-10283 20934,-10283 12339,0 17647,316 14998,12339l30373 0zm-178655 -11231l21672 0c12339,0 13328,4113 10645,16293 -2259,10259 -5054,12878 -17074,12878l-21672 0 6429 -29171zm-12146 55116l28000 0c33062,0 41770,-5760 49123,-39139 6831,-31004 -1839,-41922 -31262,-41922l-59639 0 -26140 118646 31639 0 8279 -37585zm-42692 -43885l1081 -4903c6308,-28634 -9732,-33380 -40737,-33380 -31007,0 -51142,3797 -58287,36227 -5089,23096 5945,29740 18498,31639l29239 4429c12713,1898 12933,6644 11852,11547 -2195,9967 -7448,11550 -22318,11550 -15503,0 -19654,-1267 -16935,-13606l-30374 0c-7842,35594 8215,39549 41594,39549 44610,0 52876,-6644 60125,-39549 3485,-15819 -1524,-24677 -16523,-27684l-29048 -6012c-12854,-2689 -16319,-3479 -14471,-11863 1463,-6644 3848,-10283 20933,-10283 12339,0 17648,316 14998,12339l30373 0z"/>
    <path class="fil4" d="M153051 405935c-63060,56092 -119733,132244 -61900,215040 78884,94939 244587,100202 356849,82669 -112479,-2112 -274015,-41679 -311012,-164419 -13780,-45714 -4903,-91826 16063,-133290z"/>
    <path class="fil4" d="M552003 135579c112478,2109 274022,41720 311010,164417 13781,45715 4905,91828 -16061,133290 63059,-56092 119733,-132243 61897,-215039 -78882,-94938 -244587,-100204 -356846,-82668z"/>
   </g>
  </g>
 </g>
</svg>
