<svg xmlns="http://www.w3.org/2000/svg" viewBox="0 0 192 192"><style type="text/css">
	.st0{fill:#FFFFFF;}
</style><path class="st0" d="M72.2 143c0-14.4-0.1-28.7 0.1-43.1 0-2.9-0.8-3.6-3.5-3.4 -4.1 0.2-8.2 0-12.4 0.1 -2 0.1-2.5-0.6-2.5-2.5 0.1-9.2 0.1-18.5 0-27.7 0-2 0.6-2.6 2.6-2.6 4.4 0.1 8.8-0.1 13.1 0.1 2.1 0.1 2.7-0.6 2.7-2.7 -0.1-6.9-0.4-13.8 0-20.6 0.8-15.1 6.6-27.3 21.3-33.7 5.4-2.3 11.1-3 16.8-3.1 8.7-0.1 17.5 0.1 26.2 0 2.6 0 3.1 0.9 3 3.2 -0.1 8.6-0.1 17.2 0 25.9 0 2.3-0.6 3-2.9 2.9 -5.9-0.2-11.7-0.1-17.6 0 -5.3 0.1-8.2 2.6-8.5 7.9 -0.3 6 0 12-0.1 18 -0.1 2.4 1.5 2.1 3 2.1 7.6 0 15.2 0.1 22.9-0.1 2.8-0.1 3.7 0.5 3.4 3.5 -1.1 8.9-2 17.9-2.8 26.8 -0.2 2.1-0.9 2.6-2.9 2.6 -6.2-0.1-12.5 0.3-18.7-0.2 -4.1-0.3-4.8 1.2-4.7 4.9 0.2 28 0 56 0.2 84 0 3.4-0.9 4.1-4.2 4 -10.4-0.2-20.7-0.2-31.1 0 -2.6 0-3.4-0.6-3.3-3.3C72.3 171.7 72.2 157.4 72.2 143z"/></svg>
