<?xml version="1.0" encoding="utf-8"?>
<!-- Generator: Adobe Illustrator 23.0.2, SVG Export Plug-In . SVG Version: 6.00 Build 0)  -->
<svg version="1.1" id="Слой_1" xmlns="http://www.w3.org/2000/svg" xmlns:xlink="http://www.w3.org/1999/xlink" x="0px" y="0px"
	 viewBox="0 0 1024 1024" style="enable-background:new 0 0 1024 1024;" xml:space="preserve">
<style type="text/css">
	.st0{fill:#FFFFFF;}
</style>
<g>
	<g>
		<path class="st0" d="M712.1,513.4c0,28.9-0.1,57.9,0,86.8c0.2,47.5-31,86-71.6,102.3c-16.8,6.8-34.3,9.6-52.3,9.5
			c-50.9-0.1-101.9-0.1-152.8-0.3c-15-0.1-29.9-1.6-44-7.1c-37.1-14.3-62.6-39.8-73-78.7c-2.3-8.4-3-17.4-3-26.1
			c-0.3-56.4-0.1-112.8-0.1-169.2c0-24,5.1-46.7,19.9-66.1c20.2-26.4,47-42.5,79.9-47.7c8.4-1.3,17-1.6,25.5-1.6
			c49.5-0.1,98.9-0.1,148.4,0.1c14.8,0,29.6,1.4,43.7,6.3c37.7,13.3,64,38.1,75.5,76.9c2.8,9.3,3.5,19.4,3.6,29.2
			C712.3,456.3,712,484.8,712.1,513.4C712,513.4,712,513.4,712.1,513.4z M344.7,513.7h0.1c0,27.7,0.2,55.5-0.1,83.2
			c-0.2,18.4,4.3,35,15.7,49.6c11,14.2,24.5,24.6,41.6,30.4c11.1,3.8,22.6,5.2,34.2,5.3c51.2,0.2,102.4,0,153.6,0.2
			c18.1,0.1,35-3.9,50.8-13.1c26.9-15.6,41.6-38.5,41.8-69.8c0.3-57.9,0.4-115.7,0-173.6c-0.2-34.4-19.3-57-48.5-72.2
			c-13.3-6.9-27.9-8.8-42.6-8.8c-50.9-0.1-101.9,0-152.8-0.2c-16.9-0.1-33,2.9-47.8,10.7c-28.5,15.1-45.2,38.2-45.8,71.1
			C344.3,455.6,344.7,484.6,344.7,513.7z"/>
		<path class="st0" d="M607.2,506.2c0.2,50.5-41.7,92-93,92.2s-93.3-41.2-93.4-92.2c-0.1-50.2,41.8-91.6,93-91.7
			C565,414.2,607,455.5,607.2,506.2z M514.1,568.8c35.1-0.1,63.5-28.1,63.5-62.6c0-34.2-28.7-62.2-63.5-62.2
			c-35.1,0-63.7,28-63.7,62.4C450.4,540.8,479.1,568.9,514.1,568.8z"/>
		<path class="st0" d="M637.6,406.8c0,11-8.9,20.3-19.5,20.3c-10.6,0.1-19.5-9.2-19.6-20.2c-0.1-11.2,9-20.6,19.7-20.5
			C628.7,386.5,637.6,395.8,637.6,406.8z"/>
	</g>
</g>
</svg>
