<svg xmlns="http://www.w3.org/2000/svg" viewBox="0 0 1024 1024"><style type="text/css">
	.st0{fill:#FFFFFF;}
</style><path class="st0" d="M712.1 513.4c0 28.9-0.1 57.9 0 86.8 0.2 47.5-31 86-71.6 102.3 -16.8 6.8-34.3 9.6-52.3 9.5 -50.9-0.1-101.9-0.1-152.8-0.3 -15-0.1-29.9-1.6-44-7.1 -37.1-14.3-62.6-39.8-73-78.7 -2.3-8.4-3-17.4-3-26.1 -0.3-56.4-0.1-112.8-0.1-169.2 0-24 5.1-46.7 19.9-66.1 20.2-26.4 47-42.5 79.9-47.7 8.4-1.3 17-1.6 25.5-1.6 49.5-0.1 98.9-0.1 148.4 0.1 14.8 0 29.6 1.4 43.7 6.3 37.7 13.3 64 38.1 75.5 76.9 2.8 9.3 3.5 19.4 3.6 29.2C712.3 456.3 712 484.8 712.1 513.4 712 513.4 712 513.4 712.1 513.4zM344.7 513.7h0.1c0 27.7 0.2 55.5-0.1 83.2 -0.2 18.4 4.3 35 15.7 49.6 11 14.2 24.5 24.6 41.6 30.4 11.1 3.8 22.6 5.2 34.2 5.3 51.2 0.2 102.4 0 153.6 0.2 18.1 0.1 35-3.9 50.8-13.1 26.9-15.6 41.6-38.5 41.8-69.8 0.3-57.9 0.4-115.7 0-173.6 -0.2-34.4-19.3-57-48.5-72.2 -13.3-6.9-27.9-8.8-42.6-8.8 -50.9-0.1-101.9 0-152.8-0.2 -16.9-0.1-33 2.9-47.8 10.7 -28.5 15.1-45.2 38.2-45.8 71.1C344.3 455.6 344.7 484.6 344.7 513.7z"/><path class="st0" d="M607.2 506.2c0.2 50.5-41.7 92-93 92.2s-93.3-41.2-93.4-92.2c-0.1-50.2 41.8-91.6 93-91.7C565 414.2 607 455.5 607.2 506.2zM514.1 568.8c35.1-0.1 63.5-28.1 63.5-62.6 0-34.2-28.7-62.2-63.5-62.2 -35.1 0-63.7 28-63.7 62.4C450.4 540.8 479.1 568.9 514.1 568.8z"/><path class="st0" d="M637.6 406.8c0 11-8.9 20.3-19.5 20.3 -10.6 0.1-19.5-9.2-19.6-20.2 -0.1-11.2 9-20.6 19.7-20.5C628.7 386.5 637.6 395.8 637.6 406.8z"/></svg>
