<svg xmlns="http://www.w3.org/2000/svg" viewBox="0 0 930 988.5"><style type="text/css">
	.st0{fill:#5DC42D;}
</style><path class="st0" d="M0 297.7c0-77.3 24.2-144.9 72.5-202.9 4.8-9.7 14.5-19.3 24.2-24.2C116 51.3 140.2 32 159.5 17.5c33.8-24.2 62.8-24.2 96.6 4.8 38.6 38.6 62.8 82.1 91.8 130.4 9.7 19.3 14.5 38.6 19.3 58 9.7 33.8 0 62.8-24.2 82.1 -19.3 19.3-38.6 33.8-58 48.3 -43.5 29-48.3 62.8-33.8 111.1 14.5 38.6 38.6 77.3 62.8 111.1 33.8 43.5 72.5 86.9 120.8 125.6 24.2 19.3 48.3 38.6 82.1 43.5 29 4.8 53.1 0 72.5-19.3 19.3-19.3 38.6-33.8 53.1-53.1 38.6-33.8 77.3-33.8 120.8-14.5 38.6 19.3 67.6 48.3 101.4 77.3 19.3 14.5 33.8 33.8 48.3 53.1 24.2 33.8 24.2 67.6-9.7 91.8 -29 29-58 58-96.6 77.3 -48.3 29-101.4 43.5-159.4 43.5 -67.6 0-130.4-19.3-193.2-53.1 -72.5-38.6-135.2-91.8-188.4-149.7C198 718 140.1 645.5 91.8 568.2 53.1 500.6 19.3 433 9.7 355.7 0 336.4 0 317 0 297.7z"/></svg>
