<?xml version="1.0" encoding="utf-8"?>
<!-- Generator: Adobe Illustrator 23.0.2, SVG Export Plug-In . SVG Version: 6.00 Build 0)  -->
<svg version="1.1" id="Capa_1" xmlns="http://www.w3.org/2000/svg" xmlns:xlink="http://www.w3.org/1999/xlink" x="0px" y="0px"
	 viewBox="0 0 469.3 469.3" style="enable-background:new 0 0 469.3 469.3;" xml:space="preserve">
<style type="text/css">
	.st0{fill:#FFFFFF;}
</style>
<g>
	<g>
		<path class="st0" d="M464.8,226l-256-181.3c-3.2-2.3-7.5-2.6-11.1-0.8c-3.5,1.8-5.8,5.5-5.8,9.5v96H21.3
			C9.6,149.3,0,158.9,0,170.7v128C0,310.4,9.6,320,21.3,320H192v96c0,4,2.2,7.6,5.8,9.5c1.5,0.8,3.2,1.2,4.9,1.2
			c2.2,0,4.3-0.7,6.2-2l256-181.3c2.8-2,4.5-5.3,4.5-8.7C469.3,231.2,467.6,228,464.8,226z"/>
	</g>
</g>
</svg>
