<svg xmlns="http://www.w3.org/2000/svg" viewBox="0 0 514.1 514.1"><style>.a{fill:#9069AE;}</style><path d="M260.6 3.5C265.1 0 267.7 0 281.8 0c7.1 0 17.7 0.9 23.8 1.8 29.1 3.5 47.7 7.9 73.3 20.3 25.6 12.4 41.5 23.8 63.6 44.1 20.3 19.4 30.9 34.4 43.3 58.3 16.8 32.7 25.6 70.6 27.4 113 0.9 14.1 0 17.7-3.5 22.1 -6.2 7.9-20.3 7.1-25.6-2.6 -1.8-2.6-1.8-5.3-2.6-16.8 -0.9-17.7-1.8-29.1-4.4-43.3 -9.7-53.8-36.2-97.1-78.6-128 -35.3-25.6-66.2-35.3-113.9-38.8 -16.8 0-19.4 0-23-3.5C254.5 22.1 254.5 9.7 260.6 3.5" class="a"/><path d="M348 113.9c-16.8-9.7-42.4-17.7-65.3-19.4 -7.9-0.9-13.2-2.6-15.9-6.2 -5.3-4.4-5.3-12.4-1.8-17.7 4.4-7.1 11.5-7.9 31.8-4.4 51.2 7.1 90.9 30.9 117.4 68.9 15 21.2 23.8 46.8 26.5 73.3 0.9 9.7 0.9 27.4 0 30.9 -0.9 2.6-4.4 7.1-7.9 7.9 -3.5 1.8-10.6 1.8-14.1-0.9 -6.2-3.5-8.8-7.9-8.8-22.1 0-21.2-5.3-44.1-15.9-61.8C383.4 142.1 367.5 125.4 348 113.9" class="a"/><path d="M370.1 230.4c-5.3 4.4-14.1 4.4-19.4 0 -4.4-2.6-5.3-6.2-6.2-15 -0.9-11.5-3.5-19.4-6.2-26.5 -7.1-15.9-20.3-23.8-42.4-26.5 -10.6-0.9-13.2-2.6-16.8-6.2 -6.2-7.1-3.5-18.5 4.4-23 3.5-1.8 4.4-1.8 11.5-0.9 4.4 0 10.6 0.9 14.1 1.8 16.8 3.5 29.1 9.7 40.6 19.4 14.1 13.2 22.1 28.2 24.7 51.2C376.3 219.8 375.4 226 370.1 230.4" class="a"/><path d="M512.2 418.4c0-7.9-2.6-14.1-7.9-20.3 -5.3-6.2-41.5-35.3-59.1-46.8 -13.2-8.8-33.5-21.2-42.4-25.6 -12.4-6.2-24.7-7.1-36.2-3.5 -2.6 0.9-4.4 1.8-6.2 2.6 -5.3 2.6-9.7 7.9-20.3 20.3 -7.1 8.8-13.2 16.8-14.1 16.8 0 0-0.9 0-0.9 0.9 -0.9 0.9-3.5 1.8-5.3 2.6l0 0 0 0c-11.5 5.3-26.5 1.8-51.2-9.7 -19.4-9.7-36.2-21.2-55.6-38.8 -16.8-15-33.5-33.5-42.4-48.6 -12.4-19.4-21.2-44.1-21.2-58.3 0-6.2 2.6-14.1 5.3-18.5l0 0 0.9-0.9c0 0 0 0 0.9-0.9 0.9-0.9 1.8-1.8 2.6-1.8 3.5-2.6 7.9-7.1 12.4-10.6 20.3-15.9 24.7-21.2 27.4-30 2.6-8.8 0-20.3-8.8-36.2C174.1 82.1 130 26.5 114.1 15.9c-2.6-1.8-7.1-3.5-9.7-5.3 -7.1-1.8-16.8-2.6-22.1-1.8 -7.9 1.8-17.7 7.9-39.7 23.8 -13.2 9.7-30.9 26.5-35.3 33.5 -9.7 16.8-8.8 30 2.6 62.7 10.6 29.1 24.7 58.3 40.6 86.5l0 0 0.9 0.9c3.5 5.3 7.1 11.5 10.6 16.8 0 0.9 0.9 0.9 0.9 1.8 3.5 5.3 7.1 11.5 10.6 16.8 1.8 1.8 2.6 4.4 4.4 6.2 2.6 4.4 5.3 7.9 8.8 12.4 4.4 6.2 8.8 12.4 14.1 18.5 50.3 65.3 108.6 118.3 177.4 161.5 0.9 0.9 1.8 0.9 2.6 1.8 10.6 6.2 21.2 12.4 31.8 18.5 1.8 0.9 2.6 1.8 4.4 2.6 10.6 6.2 22.1 11.5 33.5 16.8 0.9 0.9 2.6 0.9 3.5 1.8 11.5 5.3 23.8 10.6 36.2 15.9 15 6.2 20.3 7.1 31.8 6.2 5.3 0 10.6-0.9 15-2.6 7.1-1.8 13.2-5.3 21.2-10.6 1.8-0.9 2.6-1.8 4.4-2.6 1.8-0.9 3.5-2.6 5.3-4.4 9.7-7.9 20.3-20.3 29.1-31.8 6.2-7.9 10.6-15.9 13.2-22.1C511.4 430.8 512.2 424.6 512.2 418.4" class="a"/></svg>
