<?xml version="1.0" encoding="utf-8"?>
<!-- Generator: Adobe Illustrator 23.0.2, SVG Export Plug-In . SVG Version: 6.00 Build 0)  -->
<svg version="1.1" id="Слой_1" xmlns="http://www.w3.org/2000/svg" xmlns:xlink="http://www.w3.org/1999/xlink" x="0px" y="0px"
	 viewBox="0 0 1024 1024" style="enable-background:new 0 0 1024 1024;" xml:space="preserve">
<style type="text/css">
	.st0{fill:#FFFFFF;}
</style>
<g>
	<g>
		<path class="st0" d="M442.9,414.2c-0.4-10,4.3-16.2,14-16.7c23.7-1.1,47.4-1.8,71.1-2.3c6.2-0.1,12,2.8,16.7,6.8
			c3.8,3.2,4,7.9,3.9,12.5c-0.2,15.6-0.6,31.2-0.7,46.8c0,11.1,0.4,22.1,0.8,33.2c0.1,2.7,0.7,5.6,1.7,8.1c2.2,5.5,6.2,6.9,10.5,2.9
			c6.2-5.7,12.2-12,17.4-18.6c15.6-19.8,26.3-42.5,36-65.6c0.8-1.8,1.6-3.7,2.4-5.5c3-7.1,8.3-10.1,16-10.1
			c23.5,0.2,46.9,0.1,70.4,0.1c8.8,0,10.9,2.2,10.7,10.9c-0.3,11-4,20.9-10.4,29.7c-16.7,23-33.5,45.8-50.4,68.6
			c-7,9.5-6.4,17.1,2.1,25.4c12.9,12.7,25.8,25.5,38.5,38.4c8.6,8.7,15.7,18.6,21,29.5s2.2,15.8-7.1,18.5c-3.9,1.1-8.1,2-12.1,2
			c-21.6,0.2-43.2,0.1-64.8,0.1c-8.7,0-15.3-4.9-20.8-10.6c-9.6-10.1-18.5-21-27.8-31.4c-2.8-3.2-5.9-6.1-8.9-9.2
			c-6.5-6.6-21.6-2.8-22.5,8c-0.8,9.7-2.7,19.2-4.5,28.8c-2,10.4-6.3,14-17.1,15.1c-28.6,3-55.3-3.5-80.5-16.8
			c-30.6-16.1-54.1-40.1-72.9-68.6c-22-33.4-42.2-67.8-59.4-104c-2.6-5.4-4.7-11-6.9-16.6c-3.3-8.1,2.3-17.6,11-17.7
			c20.3-0.3,40.5-0.3,60.8,0c8.4,0.1,13.5,5.3,17.1,12.9c9,19,18,38,28,56.5c4.8,8.9,11.9,16.6,18.1,24.7c1.3,1.7,3.1,3,4.8,4.2
			c6.9,5.2,11.2,4.3,13.8-3.8c2.2-7,3.9-14.4,4.4-21.8c1.3-17.2-0.9-34.3-3.5-51.3c-0.7-4.7-4.4-7.2-8.4-8.9
			C451.5,416.8,447.2,415.7,442.9,414.2z"/>
	</g>
</g>
</svg>
