<svg xmlns="http://www.w3.org/2000/svg" viewBox="0 0 496 496"><style>.a{fill:#656D78;}.b{fill:#CCD1D9;}.c{fill:#ED5565;}.d{fill:#FFD2A6;}</style><path d="M120 364c26.5 0 48 21.5 48 48 0 26.6-21.5 48-48 48 -26.6 0-48-21.4-48-48C72 385.5 93.4 364 120 364zM136 412c0-8.8-7.2-16-16-16 -8.9 0-16 7.2-16 16 0 8.9 7.1 16 16 16C128.8 428 136 420.9 136 412z" class="a"/><path d="M120 396c8.8 0 16 7.2 16 16 0 8.9-7.2 16-16 16 -8.9 0-16-7.1-16-16C104 403.2 111.1 396 120 396z" class="b"/><path d="M384 396c8.8 0 16 7.2 16 16 0 8.9-7.2 16-16 16 -8.9 0-16-7.1-16-16C368 403.2 375.1 396 384 396z" class="b"/><path d="M336 412c0-26.5 21.4-48 48-48 26.5 0 48 21.5 48 48 0 26.6-21.5 48-48 48C357.4 460 336 438.6 336 412zM400 412c0-8.8-7.2-16-16-16 -8.9 0-16 7.2-16 16 0 8.9 7.1 16 16 16C392.8 428 400 420.9 400 412z" class="a"/><path d="M440 180l48 104h-96c-17.8 0-32-14.3-32-32v-72H440z" fill="#5D9CEC"/><path d="M16 276h96 96 112v-96h40v72c0 17.7 14.2 32 32 32h96v56 40h8v32h-64c0-26.5-21.5-48-48-48 -26.6 0-48 21.5-48 48H168c0-26.5-21.5-48-48-48 -26.6 0-48 21.5-48 48l-56 0.2V380H0V276H16z" fill="#A0D468"/><polygon points="488 380 488 340 488 284 456 284 456 412 496 412 496 380 " fill="#8CC152"/><polygon points="488 284 440 180 408 180 456 284 " fill="#4A89DC"/><rect x="48" y="156" width="32" height="24" class="c"/><rect x="248" y="36" width="32" height="40" class="c"/><polygon points="320 180 320 276 208 276 208 196 208 100 208 36 248 36 248 76 280 76 280 36 320 36 " class="d"/><polygon points="160 100 208 100 208 196 160 196 112 196 112 156 112 100 " fill="#F7C292"/><polygon points="160 196 208 196 208 276 112 276 112 196 " fill="#EAB081"/><polygon points="48 156 48 180 80 180 80 156 112 156 112 196 112 276 16 276 16 156 " class="d"/><path d="M480 348h8v-8 -8h-8c-4.4 0-8 3.6-8 8S475.6 348 480 348z" fill="#E6E9ED"/><path d="M152 100v16c0 4.4 3.6 8 8 8s8-3.6 8-8v-16H152z" class="c"/><path d="M152 220c0 4.4 3.6 8 8 8s8-3.6 8-8v-24h-16V220z" class="c"/></svg>
