<svg xmlns="http://www.w3.org/2000/svg" viewBox="0 0 512 512"><style>.a{fill:#FDB62F;}.b{fill:#F46B27;}.c{fill:#DBDBDB;}.d{fill:#126099;}</style><polyline points="459.9 394.8 512 394.8 512 299.4 433.9 177.9 338.4 177.9 338.4 394.8 373.2 394.8 " class="a"/><polyline points="78.1 394.8 8.7 394.8 8.7 117.2 338.4 117.2 338.4 394.8 164.9 394.8 " class="a"/><rect x="8.7" y="351.5" width="52.1" height="17.4" class="b"/><rect x="182.2" y="351.5" width="156.2" height="17.4" class="b"/><rect x="477.3" y="351.5" width="34.7" height="17.4" class="c"/><rect x="34.7" y="143.2" width="303.7" height="17.4" class="b"/><circle cx="121.5" cy="394.8" r="43.4" class="d"/><circle cx="416.5" cy="394.8" r="43.4" class="d"/><rect x="112.8" y="386.2" width="17.4" height="17.4" class="c"/><rect x="407.9" y="386.2" width="17.4" height="17.4" class="c"/><rect x="34.7" y="73.8" width="121.5" height="17.4" class="c"/><rect y="73.8" width="17.4" height="17.4" class="c"/><polygon points="456.2 212.6 373.2 212.6 373.2 290.7 506.4 290.7 " fill="#87CED9"/><rect x="338.4" y="177.9" width="17.4" height="216.9" fill="#FFA83D"/><path d="M506.4 290.7l-47.1-73.3c-23.2 27.5-52.8 48.8-86.2 62v11.3H506.4z" fill="#6CBBC7"/></svg>
