<svg xmlns="http://www.w3.org/2000/svg" viewBox="0 0 512 512"><path d="M499.9 163.9L260.5 1.4c-2.7-1.8-6.3-1.8-9 0L12.1 163.9c-2.2 1.5-3.5 4-3.5 6.6v333.5c0 4.4 3.6 8 8 8h478.9c4.4 0 8-3.6 8-8V170.5C503.4 167.8 502.1 165.3 499.9 163.9zM196.7 496h-86.6v-86.6h18.2v43.3c0 4.4 3.6 8 8 8h34.2c4.4 0 8-3.6 8-8v-43.3h18.2V496zM93 205.2v-18.2h326v18.2H93zM144.3 444.7v-35.3h18.2v35.3H144.3zM196.7 393.4h-26.2 -34.2 -26.2v-86.6h18.2v43.3c0 4.4 3.6 8 8 8h34.2c4.4 0 8-3.6 8-8v-43.3h18.2V393.4zM144.3 342v-35.3h18.2v35.3H144.3zM299.3 496h-86.6v-86.6h18.2v43.3c0 4.4 3.6 8 8 8h34.2c4.4 0 8-3.6 8-8v-43.3h18.2V496zM246.9 444.7v-35.3h18.2v35.3H246.9zM487.4 496h-69.5V324.4c0-4.4-3.6-8-8-8 -4.4 0-8 3.6-8 8v171.6h-86.6V401.4c0-4.4-3.6-8-8-8H212.7v-94.6c0-4.4-3.6-8-8-8h-94.6v-69.5h291.8v68.9c0 4.4 3.6 8 8 8 4.4 0 8-3.6 8-8v-68.9h9.1c4.4 0 8-3.6 8-8V179c0-4.4-3.6-8-8-8H85c-4.4 0-8 3.6-8 8v34.2c0 4.4 3.6 8 8 8h9.1v274.7H24.6V174.7L256 17.7l231.4 157V496z"/><path d="M290.2 68.4h-68.4c-4.4 0-8 3.6-8 8s3.6 8 8 8h68.4c4.4 0 8-3.6 8-8S294.6 68.4 290.2 68.4z"/><path d="M290.2 102.6h-68.4c-4.4 0-8 3.6-8 8s3.6 8 8 8h68.4c4.4 0 8-3.6 8-8S294.6 102.6 290.2 102.6z"/><path d="M290.2 136.8h-68.4c-4.4 0-8 3.6-8 8s3.6 8 8 8h68.4c4.4 0 8-3.6 8-8S294.6 136.8 290.2 136.8z"/><path d="M170.5 367.7h-34.2c-4.4 0-8 3.6-8 8 0 4.4 3.6 8 8 8h34.2c4.4 0 8-3.6 8-8C178.5 371.3 174.9 367.7 170.5 367.7z"/><path d="M170.5 470.3h-34.2c-4.4 0-8 3.6-8 8 0 4.4 3.6 8 8 8h34.2c4.4 0 8-3.6 8-8C178.5 473.9 174.9 470.3 170.5 470.3z"/><path d="M273.1 470.3h-34.2c-4.4 0-8 3.6-8 8 0 4.4 3.6 8 8 8h34.2c4.4 0 8-3.6 8-8C281.1 473.9 277.5 470.3 273.1 470.3z"/></svg>
