<svg xmlns="http://www.w3.org/2000/svg" viewBox="0 0 512 512"><style>.a{fill:#E5563C;}.b{fill:#74757B;}.c{fill:#FDDD85;}.d{fill:#FDD042;}.e{fill:#F2C127;}</style><path d="M499.7 163.6L260.8 1.5c-2.9-2-6.7-2-9.6 0L12.3 163.6c-2.3 1.6-3.7 4.2-3.7 7.1v332.8c0 4.7 3.8 8.5 8.5 8.5h477.9c4.7 0 8.5-3.8 8.5-8.5v-332.8C503.5 167.8 502.1 165.2 499.7 163.6z" fill="#F07B52"/><path d="M34.1 503.5v-332.8c0-2.8 1.4-5.5 3.7-7.1L268.8 6.9l-8-5.4c-2.9-2-6.7-2-9.6 0L12.3 163.6c-2.3 1.6-3.7 4.2-3.7 7.1v332.8c0 4.7 3.8 8.5 8.5 8.5h25.6C38 512 34.1 508.2 34.1 503.5z" class="a"/><path d="M409.6 204.8H102.4c-4.7 0-8.5 3.8-8.5 8.5v290.1c0 4.7 3.8 8.5 8.5 8.5h307.2c4.7 0 8.5-3.8 8.5-8.5V213.3C418.1 208.6 414.3 204.8 409.6 204.8z" class="b"/><path d="M102.4 204.8c-4.7 0-8.5 3.8-8.5 8.5v290.1c0 4.7 3.8 8.5 8.5 8.5h17.1V204.8H102.4z" fill="#606268"/><path d="M426.7 170.7H85.3c-4.7 0-8.5 3.8-8.5 8.5v34.1c0 4.7 3.8 8.5 8.5 8.5h341.3c4.7 0 8.5-3.8 8.5-8.5V179.2C435.2 174.5 431.4 170.7 426.7 170.7z" fill="#C3C4C6"/><path d="M426.7 204.8H85.3c-4.7 0-8.5-3.8-8.5-8.5v17.1c0 4.7 3.8 8.5 8.5 8.5h341.3c4.7 0 8.5-3.8 8.5-8.5v-17.1C435.2 201 431.4 204.8 426.7 204.8z" fill="#AFB0B4"/><path d="M290.1 76.8h-68.3c-4.7 0-8.5-3.8-8.5-8.5 0-4.7 3.8-8.5 8.5-8.5h68.3c4.7 0 8.5 3.8 8.5 8.5C298.7 73 294.8 76.8 290.1 76.8z" class="a"/><path d="M290.1 110.9h-68.3c-4.7 0-8.5-3.8-8.5-8.5s3.8-8.5 8.5-8.5h68.3c4.7 0 8.5 3.8 8.5 8.5S294.8 110.9 290.1 110.9z" class="a"/><path d="M290.1 145.1h-68.3c-4.7 0-8.5-3.8-8.5-8.5 0-4.7 3.8-8.5 8.5-8.5h68.3c4.7 0 8.5 3.8 8.5 8.5C298.7 141.2 294.8 145.1 290.1 145.1z" class="a"/><path d="M204.8 273.1H102.4c-4.7 0-8.5 3.8-8.5 8.5V384c0 4.7 3.8 8.5 8.5 8.5l51.2 8.5 51.2-8.5c4.7 0 8.5-3.8 8.5-8.5V281.6C213.3 276.9 209.5 273.1 204.8 273.1z" class="c"/><path d="M204.8 392.5H102.4c-4.7 0-8.5 3.8-8.5 8.5v102.4c0 4.7 3.8 8.5 8.5 8.5h102.4c4.7 0 8.5-3.8 8.5-8.5v-102.4C213.3 396.4 209.5 392.5 204.8 392.5z" class="c"/><path d="M110.9 503.5v-102.4c0-4.7 3.8-8.5 8.5-8.5H102.4c-4.7 0-8.5 3.8-8.5 8.5v102.4c0 4.7 3.8 8.5 8.5 8.5h17.1C114.8 512 110.9 508.2 110.9 503.5z" class="d"/><path d="M170.7 392.5h-34.1V435.2c0 4.7 3.8 8.5 8.5 8.5h17.1c4.7 0 8.5-3.8 8.5-8.5V392.5z" class="e"/><path d="M170.7 494.9h-34.1c-4.7 0-8.5-3.8-8.5-8.5s3.8-8.5 8.5-8.5h34.1c4.7 0 8.5 3.8 8.5 8.5S175.4 494.9 170.7 494.9z" class="b"/><path d="M110.9 384V281.6c0-4.7 3.8-8.5 8.5-8.5H102.4c-4.7 0-8.5 3.8-8.5 8.5V384c0 4.7 3.8 8.5 8.5 8.5h17.1C114.8 392.5 110.9 388.7 110.9 384z" class="d"/><path d="M170.7 273.1h-34.1v42.7c0 4.7 3.8 8.5 8.5 8.5h17.1c4.7 0 8.5-3.8 8.5-8.5V273.1z" class="e"/><path d="M170.7 375.5h-34.1c-4.7 0-8.5-3.8-8.5-8.5s3.8-8.5 8.5-8.5h34.1c4.7 0 8.5 3.8 8.5 8.5S175.4 375.5 170.7 375.5z" class="b"/><path d="M324.3 392.5h-102.4c-4.7 0-8.5 3.8-8.5 8.5v102.4c0 4.7 3.8 8.5 8.5 8.5h102.4c4.7 0 8.5-3.8 8.5-8.5v-102.4C332.8 396.4 329 392.5 324.3 392.5z" class="c"/><path d="M230.4 503.5v-102.4c0-4.7 3.8-8.5 8.5-8.5h-17.1c-4.7 0-8.5 3.8-8.5 8.5v102.4c0 4.7 3.8 8.5 8.5 8.5h17.1C234.2 512 230.4 508.2 230.4 503.5z" class="d"/><path d="M290.1 392.5H256V435.2c0 4.7 3.8 8.5 8.5 8.5H281.6c4.7 0 8.5-3.8 8.5-8.5V392.5z" class="e"/><path d="M290.1 494.9H256c-4.7 0-8.5-3.8-8.5-8.5s3.8-8.5 8.5-8.5h34.1c4.7 0 8.5 3.8 8.5 8.5S294.8 494.9 290.1 494.9z" class="b"/></svg>
