<svg xmlns="http://www.w3.org/2000/svg" viewBox="0 0 885.3 302"><style type="text/css">
	.st0{fill:#FBD901;}
	.st1{fill:#FEFEFE;}
	.st2{fill:#010101;}
	.st3{fill:#080705;}
	.st4{fill:#F2F2F2;}
	.st5{fill:#EEEEEE;}
	.st6{fill:#FBD900;}
	.st7{fill:#FAD800;}
	.st8{fill:#FAD900;}
	.st9{fill:#F8D700;}
	.st10{fill:#EBEBEB;}
	.st11{fill:#EFD001;}
	.st12{fill:#E8E8E8;}
	.st13{fill:#F2D300;}
	.st14{fill:#E3E3E3;}
	.st15{fill:#F9D800;}
	.st16{fill:#FAFAFA;}
	.st17{fill:#ECECEC;}
	.st18{fill:#F7F7F7;}
	.st19{fill:#E9E9E8;}
	.st20{enable-background:new    ;}
	.st21{fill:#FFFFFF;}
</style><title>  logo</title><circle class="st0" cx="151" cy="151" r="151"/><path class="st1" d="M290.7 151.4c2.3 76-62.6 140.1-139.5 140.3C73.6 291.8 10.5 227 10.9 150.4c0.4-75 61-139.8 140.5-139.7C230.6 10.8 293.5 77.8 290.7 151.4z"/><path class="st2" d="M144.8 257.2c-2 7.2-7.1 10.5-14.1 10.7 -8.4 0.3-15.4-3.1-20-10.2 -2.2-3.5-4.6-7.2-5.1-11.6 -0.1-0.5-0.9-1-1.4-1.5 -0.3 0.6-0.9 1.2-0.9 1.8 0 3.6 0.2 7.1 0.1 10.7 -0.4 9.2-6.5 14.3-15.6 13 -13.8-2-25.9-15-26.9-29 -0.2-1.8 0.1-3.6 0.9-5.2 5.2-9.6 5.5-20.4 7.4-30.7 0.9-4.9 1.5-9.9 5.3-13.6 0.5-0.5 1.3-1.1 1.2-1.7 0-1-0.3-2.4-0.9-2.8 -5-3.3-0.8-11.1-8.1-14 -8.5-3.4-16.1-9-22.8-15.5 -1.8-1.7-3.8-3.3-4.6-5.8 -1.6-5.2 0.8-8 6.2-6.8 10 2.2 20 4.5 30 6.8 1.9 1.1 3.3 2.9 3.8 5.1 1.1 4.3-0.6 8.4-0.7 12.7 -0.1 4.7 0.1 9.3 3.2 13.1 2.1 2.6 5.3 4.6 8.4 3.5 3.7-1.4 1.1-4.9 0.9-7.5 -0.8-11.2-3.9-22.6 3-33.1 3.5-3 7.8-2.6 12-3 13.1 0.2 26.2 0.1 39.3-1.9 4.3 0.2 8.5 1 11.9 3.9 3.7 4.6 2.7 10.1 2.7 15.4 0 7.7 1.8 14.8 6.4 21 0.9 1.5 2.1 2.9 3.4 4.1 1.2-1.6 0.1-3.3 0-4.9 -0.3-4.6-1.6-9.1-4-13.1 -2-3.5-3.4-7.7 0.5-10.6 3.3-2.5 5.9 0.6 8.3 2.6s5.6 3 8.4 4.4c2.6 1.3 4.3 4.1 2 5.9 -7.7 5.9-3.7 12.7-2.3 19.4 0.7 3.5 1.8 6.9 2.5 10.4 0.5 3.2 0.6 6.5 0.4 9.8 -0.1 1.6-0.4 3.2-1 4.8 -1.2 2.4-2.8 4.5-4.8 6.2 -5.9 3.7-10.4 9.1-16.2 13 -1.8 0.7-3.8 1.1-5.7 1.2C147 238.1 146 247.7 144.8 257.2z"/><path class="st3" d="M105.7 145.6c-3.5 1-7.9-2.2-10.7 2.2 -0.3 0.1-0.8 0.4-1 0.3 -6.9-3.6-9.8 0.2-12 6 -0.5 1.7-2.2 2.8-4 2.3 -0.1 0-0.1 0-0.2-0.1 -2.8-0.5-2-2.8-2.3-4.6 5.3-9.5 5.3-9.6-3.5-14.7 -6.5-3.7-11.8-9.3-15.2-16 -3.4-6.9-1.8-13 2.9-18.5 3.5-4 7.3-7.9 12.6-9.6 2.4-0.7 3.1-1.5 2.1-4.4 -2.5-7.3-6.7-14-8.3-21.8 -1-4.2-1.4-8.4-1.4-12.7 0.2-9 7.3-15.2 16.4-16 7.6-0.7 13.9 2.7 20.5 4.9 28.8 9.5 48.3 28.8 57.7 57.9 0.3 1 0.5 2 0.8 3 0.8-0.7 1.5-1.5 2.1-2.4 7.1-11.5 14.6-22.7 24.8-31.9 11.8-10.6 25.3-16.9 41.5-15.9 8.9 0.6 17.8 2.4 24.2 9.3 7 7.6 7.9 21.9 2.4 32 -2 3.4-4.2 6.6-6.5 9.8 -2.8 4.1-7.1 7.6-1.6 13.1 1.7 1.7 1.6 6-0.1 8.2 -3.5 4.6-1.2 8.6 1.6 11.3 9 8.6 8.7 19.4 7.2 29.9 -1.1 8.1-3.1 16-6.2 23.5 -4.4 10.4-11 18.4-22.2 21.2 -4.8 1.2-5 3.2-4.4 7.4 0.8 6 0.5 12.1 0.4 18.2 -0.2 12.5-9.3 20.6-21.5 18.1 -5.6-1.1-10.1 4.2-15.5 1.2 -5.6 5-14 0.3-19.9 5.9 -2.8 2.7-7.5 1.5-10.6-1.7 -3-3-6.4-5.7-7.6-10.1 -3.2-5.4-2.4-9.8 3.3-12.9 2.5-1.4 3.5-4.2 5.2-6.3l6.1-0.1c3 4.8 1 10.3 2.2 15.4 0.4 1.7-0.6 3.4-2.1 4.6 -1.9 1.5-5.6-0.4-5.4 0 2.1 4.6 5 0.5 7.7 0.5 7.9-0.1 14.7-0.6 21.1-6.9 5.5-5.4 6.5-4.6 3.4-12.9 -2.2-6-7.3-9.4-11.2-13.8 0.8-2.1 2.6-3.6 4.8-4.1 7.8-2.1 10 4.6 13.7 8.8 0.6 0.9 0.9 1.9 0.9 3 0.2-0.9 0.1-1.8-0.2-2.7 -0.2-2.5-0.1-4.9 0.4-7.4 1.1-8.8-0.5-10-9.1-7.1 -2 0.7-3.7 2.1-6 1.6 0-3.8-0.1-7.6-0.1-11.4 8.2-3.8 15.7-2 23.5 1.7 18.8 9.1 27.1 2.5 33.7-8.4 0.7-1.2 3.6-4-1.4-3.3 -8.2 1.1-16.2-1-24.5-0.3 -14.9 1.3-25.7-6.6-28.1-19.1 -4.1-21.7 2.4-38.4 16.9-43.9 6.7-2.5 12.6-0.8 18.4 2.4 1.1 0.6 2.6 2.3 3.6 0.9 0.6-0.8-1-3-2.3-3.2 -8.7-1.6-17.5-2.7-24.7-8.5 -0.5-0.4-1.9-0.2-2 0.2 -3.1 13.6-14.8 0.3-21.1 6.9s-10.9 14-16 21.2c-0.4 0.5-1.3 0.3-2 0 -3.8 0.3-6.8-3.3-10.8-2.2 9-14.7 9-14.7-5.8-26.5 -15.6-12.5-33.2-19.5-53.6-18 -2.1 0-4.3 0.2-6.4 0.6 -7 1.8-14.6 3.5-16.5 11.8 -2 8.7 3.9 14 10.3 18.4 7.1 4.9 15.5 7.3 23.6 10.1C101 141 105.7 140.3 105.7 145.6z"/><path class="st4" d="M156.9 231.6c0.4 2.7 1 5.5-2.6 6.8 -6.1 2.2-6.5 7.1-6 12.5 -3.5 0.8-0.1 5.4-3.5 6.3 -0.1-2.8 0-5.6-0.3-8.3 -0.6-4.9-1.7-9.7 4.9-11.8 2.3-0.7 2.9-3.5 3.7-5.9C154.2 228.1 155.5 232 156.9 231.6z"/><path class="st5" d="M105.7 145.6c-6.3-2.1-12.5-4.2-18.7-6.4 -7.4-2.6-14.4-5.9-20.1-11.5 -10.9-11-8.2-24.5 6.4-29 15.4-4.8 30.9-3.7 45.8 2.1 14.8 5.8 26.8 15.7 38.2 26.5 2.3 2.2 1.6 3.6 0.4 6.3 -2.3 5.4-6.5 7.8-11.3 9.9C132.9 146.6 119.3 145.9 105.7 145.6z"/><path class="st6" d="M157.2 145.6c4.5-11.9 11.7-21.5 22.9-27.8 2.4-1.4 5.4-2.7 5.4 2.3 0 0.6 0.7 1.2 1.2 1.7 1 1 2.1 2.3 3.5 1.4 0.7-0.4 0.9-1.8 1-2.8 0.3-2.1-3.3-5 0.6-6.3 3.6-1.2 8.5-2.4 11 1.2 5.3 7.4 11.4 8.8 19.2 4.9 2-1 3.4-0.2 3.8 2 0.4 3.2 2 6.1 4.5 8.1 1.1 0.9 2.7 1.3 1.1 2.8 -1 0.9-2.7 2.1-3.6 1.8 -2.3-0.9-4.4-2.1-6.4-3.5 -11.4-7.7-20.5-3.9-27 4.1 -8.4 10.5-10.3 27.5-3.6 39.2 6.2 10.9 13.7 14.1 29.4 10.9 2-0.4 3.7-1.6 6-0.6 6 2.8 12 3.1 18.1-0.3 1.2-0.6 2.7-0.6 2 1.8 -3.5 11.9-11.9 18.9-23.1 22.9 -0.6 0.2-1.8 0.6-2 0.4 -3.9-5.2-10.8-2.4-15.4-5.9 -4.9-3.8-10.2-6.3-16.8-3.4 -1.5 0.6-3.9-0.9-5.9-1.4 -3.6-7.3-4.8-15.3-6.4-23.1 -0.7-3.5-0.8-7.5 5-6.8 1.4 0.2 2.9-0.5 3-2.2 0.1-1.9-1.7-2.4-2.9-2.1 -6 1.5-9.4-1.3-11.6-6.5 -0.4-0.8-1.6-1.8-2.7-1.1 -0.8 0.6-1.4 1.5-1.5 2.5 -0.1 1.4-0.1 3.4 0.7 4 8.9 7 3.9 18.1 7.8 26.6 0.1 0.7-0.1 1.4-0.6 1.9 -0.2 0.2-1.3-0.1-1.7-0.5 -8.1-7.3-14.7-15.5-15.3-26.9C156.6 158.4 157 152 157.2 145.6z"/><path class="st7" d="M178.6 218.2c2.3 0.6 5.1-0.5 7 1.7 7.3 7.9 10.9 18.4 10.1 29.1 -0.1 0.7-0.4 1.4-0.9 1.9 -0.9 1-2.2 2.3-3.6 1.7 -2.2-0.8-0.3-2.1 0-3.2 0.3-1.4 0.7-3-0.7-3.9 -2.3-1.5-2.9 0.8-3.7 2.1 -4.4 7-10 9.6-18 5.7 -1.8-0.9-5.3-0.8-4.5 2.1 1.2 4.6-0.3 4.1-3.3 2.8 -5.3-2.4-8.9-7.7-8-12.3 0.2-1.5 1.4-2.6 2.8-2.9 1.2-0.2 1.1 1.2 1.4 2.1 0.5 1.3 1 2.6 1.7 3.8 0.8 1.4 2.1 2.2 3.5 1.5 1.3-0.8 1.7-2.5 0.9-3.8 -2.7-5-2.4-10.1-0.4-15.2C167.1 225.8 172 221 178.6 218.2z"/><path class="st8" d="M77.8 156.4c0.7-0.7 1.4-1.5 1.9-2.3 4.6-10.6 4.6-10.6 15.2-6.2 -3.2 9.3-2.5 18.8-1.4 28.2 0.4 3 1.4 6.1 1.5 9.3 0.1 2.4 3.5 4.8 1.3 6.8 -3 2.5-4.3-2.1-6.7-2.8 -1-0.3-2-0.6-3-0.8 -7.2-1.6-10.1-5-11.1-12.4C74.6 169.3 77.1 162.9 77.8 156.4z"/><path class="st8" d="M121.6 151.6c3.6-0.1 6.8-0.8 3.9 4.8 -2.2 4.2 2.3 8.5 1.8 13.3 -0.3 3.1 3.7 6 0.7 9.7 -0.9 1.1 0.6 3.1 1.6 3.6 5.2 2.2 6.3 6.7 7.5 11.5 0.6 2.7 2.1 5.5 5 6.5 3.2 1.1 2.3 4.1 3.3 6.2 1.4 2.9-1 2.8-2.6 2.8 -4.5 0.1-8.6-2.5-9-6.9 -0.6-6.7-4.1-10.4-10-12.1 -2-0.6-2.7-1.7-3.4-3.4 -3.8-9.9-6.4-19.9-4.4-30.8C116.5 152.7 117.8 151 121.6 151.6z"/><path class="st9" d="M90.7 220.3c-0.9-8.2 1.3-15 8.2-19.7 3.6-2.5 12.1 1.5 12.7 5.9 0.1 1.3-0.8 1.5-1.9 1.8 -1.4 0.3-2.6 1.3-4 1.4 -5.3 0.6-7.2 4.7-7.9 8.8s1.7 7.1 5.4 9.5c1.6 1 5.9 0.6 4.3 4.7 -1.4 3.8-5.6 5.5-9.7 4.4 -4.3-1.3-6.3-4.5-6.9-8.5C90.3 225.9 90.7 223 90.7 220.3z"/><path class="st10" d="M127.6 206.2c0 6.1-1.5 11.9-5.4 16.7 -4.2 5-11.6 5.7-16.6 1.5 -0.4-0.3-0.8-0.7-1.1-1.1 -2.9-3.2-1.3-9.1 3-8.9 9.7 0.6 12.6-3.4 11.2-12.3 -0.2-1.2 0.7-2.7 1.4-3.9 1.1-1.6 2.8-1.9 4.7-1.5 1.4 0.3 2.5 1.4 2.6 2.9 0.1 0.7 0.2 1.4 0.2 2.1C127.7 203.4 127.6 204.8 127.6 206.2z"/><path class="st11" d="M183.1 210.4c2.6-5.3 7.8-5.6 12.5-5.6 2.4 0 5.8 0.2 7.6 3s-1.2 4.4-2 6.4c-2.1 5.2-1.2 10.5-1.3 15.8 -0.1 1.1-0.3 2.1-0.5 3.1 -1.7-0.5-1.1-2.1-1.7-3.2 -3.3-6.6-6.5-13.4-14.4-15.8L183.1 210.4z"/><path class="st12" d="M153.7 191.2c1.4-0.3 2.9 0.5 3.4 1.8 1.9 3.7 1.8 8.1 4.2 11.8 0.8 1.3-4.6 8.1-6.5 9 -0.9 0.4-1.1 0.2-1.7-0.4 -3.1-3.3-4.1-17.8-1.2-21.2C152.5 191.9 153.1 191.5 153.7 191.2z"/><path class="st13" d="M147.7 225.1c-3.9 0-7.2-0.2-7.8-4.4 -0.3-2.4 4.8-6.9 7.1-6.5 2 0.4 5.9 5.8 5.8 8.1S151.3 225.2 147.7 225.1z"/><path class="st14" d="M136.2 214.4c0 1-0.8 1.9-1.9 1.9l0 0c-1.5 0.1-2.7-0.6-2.6-2.3 0-1 0.7-1.8 1.7-1.9h0.1C134.8 212.1 136.2 212.5 136.2 214.4z"/><path class="st5" d="M70.7 54.5c-0.1-1.3-0.1-2.6 0-3.9 0.5-3.5 2.4-5.5 6.2-6 7.3-0.9 14.3 0.7 21 2.5 32.7 9.1 52 31 59.1 64 0.7 3.3 3.8 8.2 1.4 9.8s-5-3.5-7.6-5.5c-11.8-9-23.6-18-38.4-21.6 -8.5-2.1-16.9-4.8-25.9-2.3 -3.8 1.1-6.2-0.4-7.9-4.6C74.7 76.9 69.4 67.4 70.7 54.5z"/><path class="st5" d="M165.9 122.2c-4.1-5.7-4-11.1-0.3-17.4 7.1-11.9 14.7-23.3 25.1-32.7 14.2-12.8 30.6-15.4 48.5-11.4 11.1 2.5 16.4 10.7 14.5 22 -1.5 9.3-6.2 17.2-12 24.5 -1.6 2-2.1 0.8-3.1-1.2 -4.5-8.4-6.8-9.1-16.1-5.2 -3.2 1.4-9.3-0.1-11.8-2.8 -0.7-0.8-1.2-1.8-2-2.5 -4.2-4.4-9.3-6.8-15.3-5.2 -5.7 1.5-9.6 6.7-9.4 11.6 0.4 9-5.3 12.3-11.3 15.7 -2.4 1.4-3.8 4.3-7 4.4L165.9 122.2z"/><path class="st15" d="M220.4 163c-8.9-0.2-17.2-3-25.9-4.5 -2.1-0.4-3.4-1.4-2.3-3.6 1.3-2.7 0.9-5.6 1.5-8.3 1.6-6.6 5.3-11.7 12-13.5 6.3-1.7 11.8 0.5 16.4 5 4 3.9 5.5 8.7 6.5 14.1C230.5 163.1 230.8 163.1 220.4 163z"/><path class="st7" d="M217.8 229.9c0 3.9 0.3 7.8-0.1 11.7 -0.4 6-5.6 10.6-11.6 10.2 -1.4-0.1-2.8-0.5-4-1.1 -1.5-0.7-1.7-1.9-1.7-3.4 0-2.8-0.2-5.7-0.2-8.5 0.2-0.9 0.5-1.8 0.9-2.5 1.8 0.7 3.8 3.1 5.1-0.2 0.9-2.1-1.4-4-1.5-6 -0.2-4.5-0.9-9.1 0.8-13.6 1.4-3.8 3.9-4.7 7.3-4.7 3 0 4.7 1 4.6 4.3 -0.1 4.6 0 9.2 0 13.8H217.8z"/><path class="st15" d="M243.1 165.3c-1.4-0.1-2.8-0.4-4.3-0.3 -3.1 0-4.5-1.4-4.4-4.5 0.2-5.4 0-10.6-1.9-15.8 -0.6-1.5-3.5-3.6-0.9-5.3 2.2-1.4 4.6-2.6 7.9-1.1 6.4 2.6 10.9 8.4 12 15.2 0.1 1.1 0.2 2.1 0.2 3.2C252.2 165.2 251.8 165.6 243.1 165.3z"/><path class="st16" d="M211.1 182.1c-10-0.1-18.4-8.3-18.6-17.4 0-1.6 1-1.7 1.9-1.5 5.2 1.1 10.8 1.5 15.3 4 4.3 2.4 6.5 7.7 11.1 10.4 0.9 0.5 0.4 1.9-0.8 2.4C217 181.1 214.2 182.8 211.1 182.1z"/><path class="st17" d="M194.3 109.1c-1.3 0.2-2.5 0.2-3.8 0.1 -1-0.1-2-0.5-2.7-1.3 -0.9-1.4 2.3-9.8 4.1-11.6 2.2-2.5 5.9-3.1 8.8-1.4 3.1 1.6 8.1 4.8 6.4 6.6 -2.5 2.6-3.6 8.3-9.2 7.6C196.7 109.1 195.5 109.1 194.3 109.1z"/><path class="st18" d="M233.6 182.1c-6.1 0-6.3-0.5-3.1-6.3 0.8-1.1 1.3-2.4 1.7-3.7 0.7-3.9 2.1-4 4.3-1 0.7 1.2 1.5 2.3 2.4 3.3 1.7 1.7 3.6 3.1 5.5 4.7 -2.9 1-5.3 3.5-8.7 3.1C235 182.1 234.3 182.1 233.6 182.1z"/><path class="st19" d="M234.6 109.5c-1.1 2.4-4.9 4.8-7.1 5 -4.3 0.2-0.8-4.8-2.7-7.3 -2.2-2.9 1.6-3.8 3.6-4.3C231.5 102.1 234.3 104.7 234.6 109.5z"/><path class="st5" d="M165.7 121.9l-0.9 1.5c-0.8-1.5 0.2-1.3 1.1-1.2L165.7 121.9z"/><g class="st20"><path class="st0" d="M427 147.8h-24.7v-77H368v76.9h-24.7V51.6H427V147.8z"/><path class="st0" d="M499.1 116.2c-11 0.9-21.4 1.4-31.1 1.4s-16.7-2.1-21-6.3c-4.2-4.2-6.3-10.8-6.3-19.8V51.6h24.7v39.8c0 2.1 0.6 3.8 1.9 5s2.9 1.9 5 1.9c7.5 0 16.4-0.5 26.8-1.4V51.6h24.7v96.2h-24.7L499.1 116.2 499.1 116.2z"/><path class="st0" d="M616.6 147.8h-76.2V51.6h76.2v19.2h-51.5v18.5h40.5v19.2h-40.5v19.9h51.5V147.8z"/><path class="st0" d="M650.1 143.4c-3.8 3.8-8.4 5.7-13.9 5.7s-10.7-0.5-15.5-1.4v-18.5h6.2c1.7 0 3.2-0.6 4.3-1.8s1.8-2.7 1.9-4.4l4.1-71.4h76.2v96.2h-24.7v-77h-28.8l-3.4 57C656 134.4 653.9 139.6 650.1 143.4z"/><path class="st0" d="M747.1 147.8h-26.8l36.4-96.2h27.5l36.4 96.2h-26.8l-6.2-17.2h-34.3L747.1 147.8zM759.5 112.7h22l-11-32.3L759.5 112.7z"/></g><g class="st20"><path class="st21" d="M417.4 259.9c-20.4 1.8-37.4 2.7-50.8 2.7 -9 0-15.6-2.1-19.8-6.3 -4.2-4.2-6.3-10.8-6.3-19.8v-44c0-9.6 2.2-16.6 6.5-21 4.3-4.3 11.3-6.5 21-6.5h49.5v19.2h-44c-5.5 0-8.2 2.7-8.2 8.2v44c0 2.1 0.6 3.8 1.9 5s2.8 1.9 4.7 1.9 4 0 6.3-0.1c2.3 0 4.7-0.1 7.1-0.2 2.5-0.1 5-0.2 7.5-0.3s5.8-0.3 9.8-0.5c4-0.3 9-0.6 14.9-1v18.7H417.4z"/><path class="st21" d="M504.6 261.3h-76.2v-96.2h76.2v19.2h-51.5v18.5h40.5V222h-40.5v19.9h51.5L504.6 261.3 504.6 261.3z"/><path class="st21" d="M515.6 165.1h57.7c9.6 0 16.6 2.2 21 6.5 4.3 4.4 6.5 11.3 6.5 21v13.7c0 9.6-2.2 16.6-6.5 21 -4.4 4.4-11.3 6.5-21 6.5h-33v27.5h-24.7V165.1zM576.1 192.6c0-5.5-2.7-8.2-8.2-8.2h-27.5v30.2h27.5c5.5 0 8.2-2.7 8.2-8.2V192.6z"/><path class="st21" d="M613.2 165.1h55c9 0 15.6 2 19.8 6.1s6.3 10.3 6.3 18.6c0 5.5-1.2 10-3.6 13.4 -2.4 3.4-5.3 5.8-8.8 7.2 7.4 2 12.5 7 15.1 14.8 0.9 2.8 1.4 6.1 1.4 9.9 0 9-2.1 15.6-6.3 19.8s-10.8 6.3-19.8 6.3h-59.1L613.2 165.1 613.2 165.1zM669.5 192.6c0-5.5-2.7-8.2-8.2-8.2h-23.4v19.2h23.4c5.5 0 8.2-2.7 8.2-8.2V192.6zM673.6 231.1c0-5.5-2.7-8.2-8.2-8.2h-27.5v19.2h27.5c5.5 0 8.2-2.7 8.2-8.2V231.1z"/><path class="st21" d="M794.5 261.3h-24.7v-59.1l-33 59.1h-26.1v-96.2h24.7v59.1l33-59.1h26.1V261.3z"/><path class="st21" d="M885.2 259.9c-20.4 1.8-37.4 2.7-50.8 2.7 -9 0-15.6-2.1-19.8-6.3 -4.2-4.2-6.3-10.8-6.3-19.8v-44c0-9.6 2.2-16.6 6.5-21 4.3-4.3 11.3-6.5 21-6.5h49.5v19.2h-44c-5.5 0-8.2 2.7-8.2 8.2v44c0 2.1 0.6 3.8 1.9 5s2.8 1.9 4.7 1.9 4 0 6.3-0.1c2.3 0 4.7-0.1 7.1-0.2 2.5-0.1 5-0.2 7.5-0.3s5.8-0.3 9.8-0.5c4-0.3 9-0.6 14.9-1v18.7H885.2z"/></g></svg>
