<?xml version="1.0" encoding="utf-8"?>
<!-- Generator: Adobe Illustrator 23.0.2, SVG Export Plug-In . SVG Version: 6.00 Build 0)  -->
<svg version="1.1" id="Слой_1" xmlns="http://www.w3.org/2000/svg" xmlns:xlink="http://www.w3.org/1999/xlink" x="0px" y="0px"
	 viewBox="0 0 887.9 302" style="enable-background:new 0 0 887.9 302;" xml:space="preserve">
<style type="text/css">
	.st0{fill:#FBD901;}
	.st1{fill:#FEFEFE;}
	.st2{fill:#010101;}
	.st3{fill:#080705;}
	.st4{fill:#F2F2F2;}
	.st5{fill:#EEEEEE;}
	.st6{fill:#FBD900;}
	.st7{fill:#FAD800;}
	.st8{fill:#FAD900;}
	.st9{fill:#F8D700;}
	.st10{fill:#EBEBEB;}
	.st11{fill:#EFD001;}
	.st12{fill:#E8E8E8;}
	.st13{fill:#F2D300;}
	.st14{fill:#E3E3E3;}
	.st15{fill:#F9D800;}
	.st16{fill:#FAFAFA;}
	.st17{fill:#ECECEC;}
	.st18{fill:#F7F7F7;}
	.st19{fill:#E9E9E8;}
</style>
<title>logo</title>
<g>
	<g>
		<circle class="st0" cx="151" cy="151" r="151"/>
	</g>
	<g>
		<path class="st1" d="M290.7,151.4c2.3,76-62.6,140.1-139.5,140.3C73.6,291.8,10.5,227,10.9,150.4c0.4-75,61-139.8,140.5-139.7
			C230.6,10.8,293.5,77.8,290.7,151.4z"/>
	</g>
	<g>
		<path class="st2" d="M144.8,257.2c-2,7.2-7.1,10.5-14.1,10.7c-8.4,0.3-15.4-3.1-20-10.2c-2.2-3.5-4.6-7.2-5.1-11.6
			c-0.1-0.5-0.9-1-1.4-1.5c-0.3,0.6-0.9,1.2-0.9,1.8c0,3.6,0.2,7.1,0.1,10.7c-0.4,9.2-6.5,14.3-15.6,13c-13.8-2-25.9-15-26.9-29
			c-0.2-1.8,0.1-3.6,0.9-5.2c5.2-9.6,5.5-20.4,7.4-30.7c0.9-4.9,1.5-9.9,5.3-13.6c0.5-0.5,1.3-1.1,1.2-1.7c0-1-0.3-2.4-0.9-2.8
			c-5-3.3-0.8-11.1-8.1-14c-8.5-3.4-16.1-9-22.8-15.5c-1.8-1.7-3.8-3.3-4.6-5.8c-1.6-5.2,0.8-8,6.2-6.8c10,2.2,20,4.5,30,6.8
			c1.9,1.1,3.3,2.9,3.8,5.1c1.1,4.3-0.6,8.4-0.7,12.7c-0.1,4.7,0.1,9.3,3.2,13.1c2.1,2.6,5.3,4.6,8.4,3.5c3.7-1.4,1.1-4.9,0.9-7.5
			c-0.8-11.2-3.9-22.6,3-33.1c3.5-3,7.8-2.6,12-3c13.1,0.2,26.2,0.1,39.3-1.9c4.3,0.2,8.5,1,11.9,3.9c3.7,4.6,2.7,10.1,2.7,15.4
			c0,7.7,1.8,14.8,6.4,21c0.9,1.5,2.1,2.9,3.4,4.1c1.2-1.6,0.1-3.3,0-4.9c-0.3-4.6-1.6-9.1-4-13.1c-2-3.5-3.4-7.7,0.5-10.6
			c3.3-2.5,5.9,0.6,8.3,2.6s5.6,3,8.4,4.4c2.6,1.3,4.3,4.1,2,5.9c-7.7,5.9-3.7,12.7-2.3,19.4c0.7,3.5,1.8,6.9,2.5,10.4
			c0.5,3.2,0.6,6.5,0.4,9.8c-0.1,1.6-0.4,3.2-1,4.8c-1.2,2.4-2.8,4.5-4.8,6.2c-5.9,3.7-10.4,9.1-16.2,13c-1.8,0.7-3.8,1.1-5.7,1.2
			C147,238.1,146,247.7,144.8,257.2z"/>
	</g>
	<g>
		<path class="st3" d="M105.7,145.6c-3.5,1-7.9-2.2-10.7,2.2c-0.3,0.1-0.8,0.4-1,0.3c-6.9-3.6-9.8,0.2-12,6c-0.5,1.7-2.2,2.8-4,2.3
			c-0.1,0-0.1,0-0.2-0.1c-2.8-0.5-2-2.8-2.3-4.6c5.3-9.5,5.3-9.6-3.5-14.7c-6.5-3.7-11.8-9.3-15.2-16c-3.4-6.9-1.8-13,2.9-18.5
			c3.5-4,7.3-7.9,12.6-9.6c2.4-0.7,3.1-1.5,2.1-4.4c-2.5-7.3-6.7-14-8.3-21.8c-1-4.2-1.4-8.4-1.4-12.7c0.2-9,7.3-15.2,16.4-16
			c7.6-0.7,13.9,2.7,20.5,4.9c28.8,9.5,48.3,28.8,57.7,57.9c0.3,1,0.5,2,0.8,3c0.8-0.7,1.5-1.5,2.1-2.4
			c7.1-11.5,14.6-22.7,24.8-31.9c11.8-10.6,25.3-16.9,41.5-15.9c8.9,0.6,17.8,2.4,24.2,9.3c7,7.6,7.9,21.9,2.4,32
			c-2,3.4-4.2,6.6-6.5,9.8c-2.8,4.1-7.1,7.6-1.6,13.1c1.7,1.7,1.6,6-0.1,8.2c-3.5,4.6-1.2,8.6,1.6,11.3c9,8.6,8.7,19.4,7.2,29.9
			c-1.1,8.1-3.1,16-6.2,23.5c-4.4,10.4-11,18.4-22.2,21.2c-4.8,1.2-5,3.2-4.4,7.4c0.8,6,0.5,12.1,0.4,18.2
			c-0.2,12.5-9.3,20.6-21.5,18.1c-5.6-1.1-10.1,4.2-15.5,1.2c-5.6,5-14,0.3-19.9,5.9c-2.8,2.7-7.5,1.5-10.6-1.7
			c-3-3-6.4-5.7-7.6-10.1c-3.2-5.4-2.4-9.8,3.3-12.9c2.5-1.4,3.5-4.2,5.2-6.3l6.1-0.1c3,4.8,1,10.3,2.2,15.4
			c0.4,1.7-0.6,3.4-2.1,4.6c-1.9,1.5-5.6-0.4-5.4,0c2.1,4.6,5,0.5,7.7,0.5c7.9-0.1,14.7-0.6,21.1-6.9c5.5-5.4,6.5-4.6,3.4-12.9
			c-2.2-6-7.3-9.4-11.2-13.8c0.8-2.1,2.6-3.6,4.8-4.1c7.8-2.1,10,4.6,13.7,8.8c0.6,0.9,0.9,1.9,0.9,3c0.2-0.9,0.1-1.8-0.2-2.7
			c-0.2-2.5-0.1-4.9,0.4-7.4c1.1-8.8-0.5-10-9.1-7.1c-2,0.7-3.7,2.1-6,1.6c0-3.8-0.1-7.6-0.1-11.4c8.2-3.8,15.7-2,23.5,1.7
			c18.8,9.1,27.1,2.5,33.7-8.4c0.7-1.2,3.6-4-1.4-3.3c-8.2,1.1-16.2-1-24.5-0.3c-14.9,1.3-25.7-6.6-28.1-19.1
			c-4.1-21.7,2.4-38.4,16.9-43.9c6.7-2.5,12.6-0.8,18.4,2.4c1.1,0.6,2.6,2.3,3.6,0.9c0.6-0.8-1-3-2.3-3.2
			c-8.7-1.6-17.5-2.7-24.7-8.5c-0.5-0.4-1.9-0.2-2,0.2c-3.1,13.6-14.8,0.3-21.1,6.9s-10.9,14-16,21.2c-0.4,0.5-1.3,0.3-2,0
			c-3.8,0.3-6.8-3.3-10.8-2.2c9-14.7,9-14.7-5.8-26.5c-15.6-12.5-33.2-19.5-53.6-18c-2.1,0-4.3,0.2-6.4,0.6
			c-7,1.8-14.6,3.5-16.5,11.8c-2,8.7,3.9,14,10.3,18.4c7.1,4.9,15.5,7.3,23.6,10.1C101,141,105.7,140.3,105.7,145.6z"/>
	</g>
	<g>
		<path class="st4" d="M156.9,231.6c0.4,2.7,1,5.5-2.6,6.8c-6.1,2.2-6.5,7.1-6,12.5c-3.5,0.8-0.1,5.4-3.5,6.3
			c-0.1-2.8,0-5.6-0.3-8.3c-0.6-4.9-1.7-9.7,4.9-11.8c2.3-0.7,2.9-3.5,3.7-5.9C154.2,228.1,155.5,232,156.9,231.6z"/>
	</g>
	<g>
		<path class="st5" d="M105.7,145.6c-6.3-2.1-12.5-4.2-18.7-6.4c-7.4-2.6-14.4-5.9-20.1-11.5c-10.9-11-8.2-24.5,6.4-29
			c15.4-4.8,30.9-3.7,45.8,2.1c14.8,5.8,26.8,15.7,38.2,26.5c2.3,2.2,1.6,3.6,0.4,6.3c-2.3,5.4-6.5,7.8-11.3,9.9
			C132.9,146.6,119.3,145.9,105.7,145.6z"/>
	</g>
	<g>
		<path class="st6" d="M157.2,145.6c4.5-11.9,11.7-21.5,22.9-27.8c2.4-1.4,5.4-2.7,5.4,2.3c0,0.6,0.7,1.2,1.2,1.7
			c1,1,2.1,2.3,3.5,1.4c0.7-0.4,0.9-1.8,1-2.8c0.3-2.1-3.3-5,0.6-6.3c3.6-1.2,8.5-2.4,11,1.2c5.3,7.4,11.4,8.8,19.2,4.9
			c2-1,3.4-0.2,3.8,2c0.4,3.2,2,6.1,4.5,8.1c1.1,0.9,2.7,1.3,1.1,2.8c-1,0.9-2.7,2.1-3.6,1.8c-2.3-0.9-4.4-2.1-6.4-3.5
			c-11.4-7.7-20.5-3.9-27,4.1c-8.4,10.5-10.3,27.5-3.6,39.2c6.2,10.9,13.7,14.1,29.4,10.9c2-0.4,3.7-1.6,6-0.6
			c6,2.8,12,3.1,18.1-0.3c1.2-0.6,2.7-0.6,2,1.8c-3.5,11.9-11.9,18.9-23.1,22.9c-0.6,0.2-1.8,0.6-2,0.4c-3.9-5.2-10.8-2.4-15.4-5.9
			c-4.9-3.8-10.2-6.3-16.8-3.4c-1.5,0.6-3.9-0.9-5.9-1.4c-3.6-7.3-4.8-15.3-6.4-23.1c-0.7-3.5-0.8-7.5,5-6.8c1.4,0.2,2.9-0.5,3-2.2
			c0.1-1.9-1.7-2.4-2.9-2.1c-6,1.5-9.4-1.3-11.6-6.5c-0.4-0.8-1.6-1.8-2.7-1.1c-0.8,0.6-1.4,1.5-1.5,2.5c-0.1,1.4-0.1,3.4,0.7,4
			c8.9,7,3.9,18.1,7.8,26.6c0.1,0.7-0.1,1.4-0.6,1.9c-0.2,0.2-1.3-0.1-1.7-0.5c-8.1-7.3-14.7-15.5-15.3-26.9
			C156.6,158.4,157,152,157.2,145.6z"/>
	</g>
	<g>
		<path class="st7" d="M178.6,218.2c2.3,0.6,5.1-0.5,7,1.7c7.3,7.9,10.9,18.4,10.1,29.1c-0.1,0.7-0.4,1.4-0.9,1.9
			c-0.9,1-2.2,2.3-3.6,1.7c-2.2-0.8-0.3-2.1,0-3.2c0.3-1.4,0.7-3-0.7-3.9c-2.3-1.5-2.9,0.8-3.7,2.1c-4.4,7-10,9.6-18,5.7
			c-1.8-0.9-5.3-0.8-4.5,2.1c1.2,4.6-0.3,4.1-3.3,2.8c-5.3-2.4-8.9-7.7-8-12.3c0.2-1.5,1.4-2.6,2.8-2.9c1.2-0.2,1.1,1.2,1.4,2.1
			c0.5,1.3,1,2.6,1.7,3.8c0.8,1.4,2.1,2.2,3.5,1.5c1.3-0.8,1.7-2.5,0.9-3.8c-2.7-5-2.4-10.1-0.4-15.2
			C167.1,225.8,172,221,178.6,218.2z"/>
	</g>
	<g>
		<path class="st8" d="M77.8,156.4c0.7-0.7,1.4-1.5,1.9-2.3c4.6-10.6,4.6-10.6,15.2-6.2c-3.2,9.3-2.5,18.8-1.4,28.2
			c0.4,3,1.4,6.1,1.5,9.3c0.1,2.4,3.5,4.8,1.3,6.8c-3,2.5-4.3-2.1-6.7-2.8c-1-0.3-2-0.6-3-0.8c-7.2-1.6-10.1-5-11.1-12.4
			C74.6,169.3,77.1,162.9,77.8,156.4z"/>
	</g>
	<g>
		<path class="st8" d="M121.6,151.6c3.6-0.1,6.8-0.8,3.9,4.8c-2.2,4.2,2.3,8.5,1.8,13.3c-0.3,3.1,3.7,6,0.7,9.7
			c-0.9,1.1,0.6,3.1,1.6,3.6c5.2,2.2,6.3,6.7,7.5,11.5c0.6,2.7,2.1,5.5,5,6.5c3.2,1.1,2.3,4.1,3.3,6.2c1.4,2.9-1,2.8-2.6,2.8
			c-4.5,0.1-8.6-2.5-9-6.9c-0.6-6.7-4.1-10.4-10-12.1c-2-0.6-2.7-1.7-3.4-3.4c-3.8-9.9-6.4-19.9-4.4-30.8
			C116.5,152.7,117.8,151,121.6,151.6z"/>
	</g>
	<g>
		<path class="st9" d="M90.7,220.3c-0.9-8.2,1.3-15,8.2-19.7c3.6-2.5,12.1,1.5,12.7,5.9c0.1,1.3-0.8,1.5-1.9,1.8
			c-1.4,0.3-2.6,1.3-4,1.4c-5.3,0.6-7.2,4.7-7.9,8.8s1.7,7.1,5.4,9.5c1.6,1,5.9,0.6,4.3,4.7c-1.4,3.8-5.6,5.5-9.7,4.4
			c-4.3-1.3-6.3-4.5-6.9-8.5C90.3,225.9,90.7,223,90.7,220.3z"/>
	</g>
	<g>
		<path class="st10" d="M127.6,206.2c0,6.1-1.5,11.9-5.4,16.7c-4.2,5-11.6,5.7-16.6,1.5c-0.4-0.3-0.8-0.7-1.1-1.1
			c-2.9-3.2-1.3-9.1,3-8.9c9.7,0.6,12.6-3.4,11.2-12.3c-0.2-1.2,0.7-2.7,1.4-3.9c1.1-1.6,2.8-1.9,4.7-1.5c1.4,0.3,2.5,1.4,2.6,2.9
			c0.1,0.7,0.2,1.4,0.2,2.1C127.7,203.4,127.6,204.8,127.6,206.2z"/>
	</g>
	<g>
		<path class="st11" d="M183.1,210.4c2.6-5.3,7.8-5.6,12.5-5.6c2.4,0,5.8,0.2,7.6,3s-1.2,4.4-2,6.4c-2.1,5.2-1.2,10.5-1.3,15.8
			c-0.1,1.1-0.3,2.1-0.5,3.1c-1.7-0.5-1.1-2.1-1.7-3.2c-3.3-6.6-6.5-13.4-14.4-15.8L183.1,210.4z"/>
	</g>
	<g>
		<path class="st12" d="M153.7,191.2c1.4-0.3,2.9,0.5,3.4,1.8c1.9,3.7,1.8,8.1,4.2,11.8c0.8,1.3-4.6,8.1-6.5,9
			c-0.9,0.4-1.1,0.2-1.7-0.4c-3.1-3.3-4.1-17.8-1.2-21.2C152.5,191.9,153.1,191.5,153.7,191.2z"/>
	</g>
	<g>
		<path class="st13" d="M147.7,225.1c-3.9,0-7.2-0.2-7.8-4.4c-0.3-2.4,4.8-6.9,7.1-6.5c2,0.4,5.9,5.8,5.8,8.1
			S151.3,225.2,147.7,225.1z"/>
	</g>
	<g>
		<path class="st14" d="M136.2,214.4c0,1-0.8,1.9-1.9,1.9l0,0c-1.5,0.1-2.7-0.6-2.6-2.3c0-1,0.7-1.8,1.7-1.9h0.1
			C134.8,212.1,136.2,212.5,136.2,214.4z"/>
	</g>
	<g>
		<path class="st5" d="M70.7,54.5c-0.1-1.3-0.1-2.6,0-3.9c0.5-3.5,2.4-5.5,6.2-6c7.3-0.9,14.3,0.7,21,2.5c32.7,9.1,52,31,59.1,64
			c0.7,3.3,3.8,8.2,1.4,9.8s-5-3.5-7.6-5.5c-11.8-9-23.6-18-38.4-21.6c-8.5-2.1-16.9-4.8-25.9-2.3c-3.8,1.1-6.2-0.4-7.9-4.6
			C74.7,76.9,69.4,67.4,70.7,54.5z"/>
	</g>
	<g>
		<path class="st5" d="M165.9,122.2c-4.1-5.7-4-11.1-0.3-17.4c7.1-11.9,14.7-23.3,25.1-32.7c14.2-12.8,30.6-15.4,48.5-11.4
			c11.1,2.5,16.4,10.7,14.5,22c-1.5,9.3-6.2,17.2-12,24.5c-1.6,2-2.1,0.8-3.1-1.2c-4.5-8.4-6.8-9.1-16.1-5.2
			c-3.2,1.4-9.3-0.1-11.8-2.8c-0.7-0.8-1.2-1.8-2-2.5c-4.2-4.4-9.3-6.8-15.3-5.2c-5.7,1.5-9.6,6.7-9.4,11.6
			c0.4,9-5.3,12.3-11.3,15.7c-2.4,1.4-3.8,4.3-7,4.4L165.9,122.2z"/>
	</g>
	<g>
		<path class="st15" d="M220.4,163c-8.9-0.2-17.2-3-25.9-4.5c-2.1-0.4-3.4-1.4-2.3-3.6c1.3-2.7,0.9-5.6,1.5-8.3
			c1.6-6.6,5.3-11.7,12-13.5c6.3-1.7,11.8,0.5,16.4,5c4,3.9,5.5,8.7,6.5,14.1C230.5,163.1,230.8,163.1,220.4,163z"/>
	</g>
	<g>
		<path class="st7" d="M217.8,229.9c0,3.9,0.3,7.8-0.1,11.7c-0.4,6-5.6,10.6-11.6,10.2c-1.4-0.1-2.8-0.5-4-1.1
			c-1.5-0.7-1.7-1.9-1.7-3.4c0-2.8-0.2-5.7-0.2-8.5c0.2-0.9,0.5-1.8,0.9-2.5c1.8,0.7,3.8,3.1,5.1-0.2c0.9-2.1-1.4-4-1.5-6
			c-0.2-4.5-0.9-9.1,0.8-13.6c1.4-3.8,3.9-4.7,7.3-4.7c3,0,4.7,1,4.6,4.3c-0.1,4.6,0,9.2,0,13.8H217.8z"/>
	</g>
	<g>
		<path class="st15" d="M243.1,165.3c-1.4-0.1-2.8-0.4-4.3-0.3c-3.1,0-4.5-1.4-4.4-4.5c0.2-5.4,0-10.6-1.9-15.8
			c-0.6-1.5-3.5-3.6-0.9-5.3c2.2-1.4,4.6-2.6,7.9-1.1c6.4,2.6,10.9,8.4,12,15.2c0.1,1.1,0.2,2.1,0.2,3.2
			C252.2,165.2,251.8,165.6,243.1,165.3z"/>
	</g>
	<g>
		<path class="st16" d="M211.1,182.1c-10-0.1-18.4-8.3-18.6-17.4c0-1.6,1-1.7,1.9-1.5c5.2,1.1,10.8,1.5,15.3,4
			c4.3,2.4,6.5,7.7,11.1,10.4c0.9,0.5,0.4,1.9-0.8,2.4C217,181.1,214.2,182.8,211.1,182.1z"/>
	</g>
	<g>
		<path class="st17" d="M194.3,109.1c-1.3,0.2-2.5,0.2-3.8,0.1c-1-0.1-2-0.5-2.7-1.3c-0.9-1.4,2.3-9.8,4.1-11.6
			c2.2-2.5,5.9-3.1,8.8-1.4c3.1,1.6,8.1,4.8,6.4,6.6c-2.5,2.6-3.6,8.3-9.2,7.6C196.7,109.1,195.5,109.1,194.3,109.1z"/>
	</g>
	<g>
		<path class="st18" d="M233.6,182.1c-6.1,0-6.3-0.5-3.1-6.3c0.8-1.1,1.3-2.4,1.7-3.7c0.7-3.9,2.1-4,4.3-1c0.7,1.2,1.5,2.3,2.4,3.3
			c1.7,1.7,3.6,3.1,5.5,4.7c-2.9,1-5.3,3.5-8.7,3.1C235,182.1,234.3,182.1,233.6,182.1z"/>
	</g>
	<g>
		<path class="st19" d="M234.6,109.5c-1.1,2.4-4.9,4.8-7.1,5c-4.3,0.2-0.8-4.8-2.7-7.3c-2.2-2.9,1.6-3.8,3.6-4.3
			C231.5,102.1,234.3,104.7,234.6,109.5z"/>
	</g>
	<g>
		<path class="st5" d="M165.7,121.9l-0.9,1.5c-0.8-1.5,0.2-1.3,1.1-1.2L165.7,121.9z"/>
	</g>
</g>
</svg>
