<svg xmlns="http://www.w3.org/2000/svg" viewBox="0 0 887.93 301.96"><defs><style>.cls-1,.cls-21{fill:#fbd901;}.cls-2{fill:#fefefe;}.cls-3{fill:#010101;}.cls-4{fill:#080705;}.cls-5{fill:#f2f2f2;}.cls-6{fill:#eee;}.cls-7{fill:#fbd900;}.cls-8{fill:#fad800;}.cls-9{fill:#fad900;}.cls-10{fill:#f8d700;}.cls-11{fill:#ebebeb;}.cls-12{fill:#efd001;}.cls-13{fill:#e8e8e8;}.cls-14{fill:#f2d300;}.cls-15{fill:#e3e3e3;}.cls-16{fill:#f9d800;}.cls-17{fill:#fafafa;}.cls-18{fill:#ececec;}.cls-19{fill:#f7f7f7;}.cls-20{fill:#e9e9e8;}.cls-21,.cls-22{font-size:137.38px;font-family:RussoOne-Regular, Russo One;}.cls-22{fill:#fff;}</style></defs><title>logo</title><g id="Слой_2" data-name="Слой 2"><circle class="cls-1" cx="150.98" cy="150.98" r="150.98"/><path class="cls-2" d="M349.06,284c2.25,76-62.59,140.08-139.46,140.29C132,424.44,68.83,359.6,69.26,283.06c.42-75,61-139.76,140.55-139.72C289,143.38,351.92,210.41,349.06,284Z" transform="translate(-58.38 -132.62)"/><path class="cls-3" d="M203.2,389.8c-2,7.17-7.14,10.48-14.14,10.68-8.35.25-15.45-3.1-20-10.16-2.23-3.48-4.56-7.24-5.1-11.64-.07-.55-.89-1-1.35-1.52-.32.6-.89,1.2-.9,1.81,0,3.57.23,7.15.07,10.72-.42,9.24-6.54,14.26-15.59,13-13.83-2-25.94-15-26.94-29a10,10,0,0,1,.87-5.18c5.23-9.61,5.46-20.37,7.39-30.74.91-4.89,1.48-9.87,5.26-13.65.5-.5,1.25-1.13,1.24-1.68,0-1-.27-2.36-.93-2.8-5-3.29-.82-11.14-8.06-14-8.5-3.37-16.11-8.95-22.79-15.45-1.77-1.72-3.78-3.3-4.56-5.83-1.6-5.24.82-7.95,6.19-6.76,10,2.23,20,4.54,30,6.81a8.07,8.07,0,0,1,3.82,5.09c1.09,4.29-.6,8.44-.73,12.67-.14,4.69.12,9.33,3.24,13.14,2.13,2.59,5.34,4.57,8.38,3.45,3.72-1.38,1.07-4.91.89-7.47-.8-11.19-3.9-22.57,3-33.08,3.49-3,7.84-2.62,12-3,13.13.18,26.23.06,39.25-1.93,4.33.18,8.46,1,11.88,3.88,3.66,4.62,2.67,10.13,2.69,15.36,0,7.7,1.75,14.76,6.35,21a20.08,20.08,0,0,0,3.36,4.1c1.23-1.62.08-3.27,0-4.9a28.82,28.82,0,0,0-4-13.09c-2-3.51-3.35-7.66.53-10.6,3.28-2.48,5.93.61,8.34,2.57s5.61,3,8.45,4.44c2.58,1.3,4.34,4.09,2,5.91-7.66,5.93-3.72,12.73-2.3,19.41.74,3.47,1.81,6.87,2.5,10.36a45.28,45.28,0,0,1,.4,9.8,16.72,16.72,0,0,1-1,4.78,18.69,18.69,0,0,1-4.83,6.19c-5.88,3.72-10.42,9.13-16.2,13a20.86,20.86,0,0,1-5.72,1.21C205.35,370.68,204.34,380.28,203.2,389.8Z" transform="translate(-58.38 -132.62)"/><path class="cls-4" d="M164.05,278.23c-3.51,1-7.9-2.24-10.74,2.16-.34.11-.78.42-1,.3-6.85-3.65-9.81.17-12,6a3.25,3.25,0,0,1-4.16,2.27c-2.78-.55-2-2.84-2.28-4.64,5.26-9.47,5.33-9.58-3.48-14.68a37.41,37.41,0,0,1-15.16-16c-3.41-6.86-1.83-13,2.94-18.51,3.51-4,7.26-7.93,12.63-9.55,2.45-.74,3.08-1.47,2.07-4.4-2.53-7.34-6.67-14-8.33-21.76a53.53,53.53,0,0,1-1.38-12.67c.22-9,7.28-15.17,16.37-16,7.59-.71,13.95,2.69,20.53,4.87,28.82,9.54,48.28,28.81,57.72,57.88.32,1,.5,2,.75,3a17.24,17.24,0,0,0,2.11-2.35c7.13-11.51,14.61-22.73,24.82-31.85,11.82-10.58,25.3-16.95,41.49-15.94,8.94.55,17.76,2.4,24.19,9.27,7,7.55,7.93,21.89,2.38,32a116.57,116.57,0,0,1-6.51,9.76c-2.8,4.06-7.14,7.58-1.65,13.1,1.69,1.7,1.63,6-.07,8.2-3.55,4.65-1.22,8.59,1.63,11.3,9,8.57,8.7,19.44,7.16,29.9a96.78,96.78,0,0,1-6.17,23.49c-4.38,10.39-11,18.35-22.16,21.16-4.77,1.2-5,3.17-4.4,7.4.79,6,.54,12.13.44,18.2-.19,12.48-9.31,20.57-21.53,18.14-5.57-1.1-10.11,4.24-15.46,1.21-5.64,5-14,.32-19.9,5.87-2.84,2.67-7.5,1.46-10.65-1.72-3-3-6.42-5.74-7.59-10.14-3.18-5.41-2.42-9.77,3.33-12.93,2.53-1.39,3.51-4.19,5.24-6.32l6.09-.14c3,4.78,1,10.29,2.23,15.36.42,1.71-.56,3.37-2.1,4.56-1.92,1.46-5.57-.4-5.4,0,2.15,4.59,5,.55,7.69.52,7.91-.1,14.69-.6,21.14-6.93,5.51-5.42,6.46-4.56,3.36-12.9-2.24-6-7.28-9.38-11.24-13.79a6.68,6.68,0,0,1,4.77-4.12c7.83-2.13,10,4.63,13.72,8.84a5.72,5.72,0,0,1,.92,3,5.41,5.41,0,0,0-.16-2.71,27.11,27.11,0,0,1,.36-7.36c1.11-8.75-.48-10-9.1-7.07-2,.66-3.74,2.06-6,1.61,0-3.78-.07-7.57-.11-11.35,8.16-3.77,15.72-2,23.49,1.73,18.83,9.13,27.09,2.47,33.7-8.38.72-1.18,3.58-4-1.36-3.33-8.16,1.14-16.24-1-24.51-.3-14.94,1.27-25.68-6.62-28.05-19.06-4.13-21.67,2.37-38.37,16.88-43.88,6.68-2.54,12.58-.77,18.44,2.36,1.13.6,2.61,2.28,3.6.91.56-.79-1-3-2.3-3.19-8.69-1.58-17.5-2.66-24.71-8.53-.48-.39-1.9-.21-2,.16-3.13,13.6-14.81.25-21.12,6.89s-10.87,13.95-16,21.17c-.36.5-1.25.34-2,0-3.8.27-6.83-3.26-10.79-2.17,9-14.69,9-14.71-5.78-26.53-15.65-12.5-33.16-19.53-53.56-18a35.86,35.86,0,0,0-6.39.64c-7,1.84-14.62,3.52-16.47,11.76-2,8.66,3.93,14,10.31,18.42,7.15,4.92,15.47,7.29,23.57,10.15C159.4,273.58,164.11,272.91,164.05,278.23Z" transform="translate(-58.38 -132.62)"/><path class="cls-5" d="M215.25,364.21c.4,2.74,1,5.48-2.6,6.76-6.07,2.16-6.48,7.13-6,12.49-3.54.81-.15,5.42-3.48,6.34-.1-2.78,0-5.58-.34-8.33-.57-4.9-1.73-9.73,4.92-11.81,2.34-.73,2.85-3.52,3.69-5.9C212.54,360.7,213.86,364.66,215.25,364.21Z" transform="translate(-58.38 -132.62)"/><path class="cls-6" d="M164.05,278.23c-6.25-2.14-12.52-4.19-18.74-6.42-7.37-2.65-14.45-5.86-20.1-11.55-10.92-11-8.19-24.5,6.37-29,15.4-4.8,30.88-3.74,45.84,2.15,14.76,5.82,26.83,15.68,38.19,26.52,2.34,2.24,1.57,3.65.45,6.3-2.28,5.37-6.46,7.83-11.31,9.86C191.32,279.27,177.67,278.48,164.05,278.23Z" transform="translate(-58.38 -132.62)"/><path class="cls-7" d="M215.54,278.22c4.51-11.85,11.74-21.49,22.92-27.8,2.39-1.35,5.38-2.74,5.39,2.31,0,.58.69,1.22,1.16,1.73,1,1,2.09,2.26,3.54,1.42.67-.39.91-1.8,1-2.79.31-2.11-3.26-5,.58-6.27,3.64-1.23,8.46-2.35,11,1.16,5.3,7.41,11.38,8.85,19.24,4.87,2-1,3.44-.24,3.77,2a12.51,12.51,0,0,0,4.47,8.08c1.06.87,2.74,1.3,1.09,2.83-1,.9-2.69,2.06-3.63,1.75a27.19,27.19,0,0,1-6.38-3.53c-11.43-7.73-20.54-3.92-27,4.13-8.43,10.49-10.27,27.54-3.57,39.21,6.23,10.85,13.72,14.14,29.43,10.9,2-.42,3.68-1.62,6-.56,6,2.77,12,3.07,18.06-.29,1.16-.65,2.73-.58,2,1.83-3.5,11.93-11.9,18.85-23.14,22.92-.65.23-1.79.6-2,.35-3.91-5.19-10.81-2.37-15.41-5.9-4.92-3.78-10.18-6.31-16.76-3.43-1.49.65-3.93-.9-5.94-1.44-3.59-7.31-4.78-15.32-6.42-23.15-.73-3.46-.78-7.48,5-6.78,1.39.17,2.94-.47,3-2.2.11-1.92-1.74-2.4-2.9-2.12-6,1.46-9.38-1.27-11.62-6.48-.35-.82-1.61-1.79-2.67-1.12a3.64,3.64,0,0,0-1.5,2.5c-.08,1.35-.08,3.35.74,4,8.93,7,3.87,18.12,7.8,26.56a2.27,2.27,0,0,1-.59,1.89c-.18.2-1.28-.1-1.69-.47-8.09-7.26-14.71-15.48-15.31-26.88C215,291,215.43,284.62,215.54,278.22Z" transform="translate(-58.38 -132.62)"/><path class="cls-8" d="M237,350.86c2.33.59,5.08-.5,7,1.7a38.41,38.41,0,0,1,10.06,29.08,3.35,3.35,0,0,1-.94,1.86c-.95,1.05-2.21,2.27-3.61,1.74-2.16-.81-.25-2.11,0-3.2.33-1.4.71-3-.67-3.89-2.34-1.52-2.88.77-3.72,2.14-4.36,7-10,9.65-18,5.7-1.76-.87-5.28-.77-4.53,2.11,1.2,4.58-.25,4.11-3.28,2.77-5.32-2.36-8.87-7.66-8-12.27a3.56,3.56,0,0,1,2.8-2.92c1.18-.18,1.14,1.23,1.44,2.13a23.22,23.22,0,0,0,1.73,3.8c.76,1.36,2.15,2.18,3.49,1.46a2.77,2.77,0,0,0,.91-3.77c-2.66-5.05-2.37-10.1-.39-15.23C225.5,358.4,230.42,353.63,237,350.86Z" transform="translate(-58.38 -132.62)"/><path class="cls-9" d="M136.17,289a11.21,11.21,0,0,0,1.9-2.34c4.61-10.57,4.59-10.58,15.24-6.24-3.22,9.27-2.48,18.83-1.39,28.23.35,3,1.36,6.15,1.54,9.29.13,2.4,3.54,4.84,1.28,6.76-3,2.5-4.28-2.09-6.67-2.78-1-.29-2-.56-3-.78-7.18-1.58-10.13-5.05-11.11-12.36C133,301.93,135.44,295.56,136.17,289Z" transform="translate(-58.38 -132.62)"/><path class="cls-9" d="M180,284.23c3.65-.11,6.78-.75,3.92,4.79-2.18,4.21,2.3,8.55,1.78,13.34-.34,3.07,3.71,6,.67,9.68-.93,1.13.59,3.13,1.61,3.56,5.23,2.21,6.34,6.71,7.5,11.54.64,2.71,2.1,5.53,5,6.55,3.22,1.13,2.29,4.08,3.27,6.17,1.37,2.89-1,2.76-2.6,2.81-4.46.13-8.65-2.54-9-6.94-.57-6.7-4.12-10.37-10-12.13-2-.61-2.74-1.7-3.41-3.42-3.84-9.94-6.41-19.93-4.45-30.82C174.92,285.3,176.17,283.6,180,284.23Z" transform="translate(-58.38 -132.62)"/><path class="cls-10" d="M149.12,352.92c-.93-8.19,1.31-15,8.16-19.67,3.65-2.51,12.15,1.54,12.66,5.94.15,1.25-.82,1.54-1.91,1.8-1.37.33-2.62,1.29-4,1.44-5.33.58-7.17,4.72-7.94,8.81s1.74,7.11,5.36,9.51c1.59,1.05,5.89.58,4.34,4.67-1.43,3.8-5.64,5.55-9.66,4.37-4.29-1.27-6.25-4.54-6.94-8.5C148.73,358.52,149.12,355.6,149.12,352.92Z" transform="translate(-58.38 -132.62)"/><path class="cls-11" d="M186,338.79c0,6.15-1.54,11.91-5.44,16.72a11.82,11.82,0,0,1-17.76.46c-2.92-3.22-1.28-9.14,3-8.85,9.67.65,12.55-3.4,11.2-12.25-.18-1.2.66-2.72,1.39-3.85,1.07-1.65,2.81-1.91,4.69-1.49a3.2,3.2,0,0,1,2.63,2.89,13.49,13.49,0,0,1,.23,2.11C186.06,336,186,337.37,186,338.79Z" transform="translate(-58.38 -132.62)"/><path class="cls-12" d="M241.52,343c2.61-5.28,7.81-5.63,12.5-5.61,2.4,0,5.84.18,7.62,3s-1.16,4.37-2,6.4c-2.07,5.22-1.22,10.53-1.25,15.83a17.8,17.8,0,0,1-.55,3.11c-1.69-.51-1.15-2.13-1.68-3.22-3.27-6.65-6.5-13.38-14.41-15.82Z" transform="translate(-58.38 -132.62)"/><path class="cls-13" d="M212.07,323.85a3,3,0,0,1,3.42,1.84c1.93,3.72,1.83,8.14,4.2,11.79.81,1.25-4.61,8.12-6.46,9-.88.4-1.07.24-1.66-.38-3.13-3.28-4.07-17.82-1.2-21.17A6.35,6.35,0,0,1,212.07,323.85Z" transform="translate(-58.38 -132.62)"/><path class="cls-14" d="M206.12,357.69c-3.94,0-7.24-.16-7.77-4.44-.29-2.44,4.75-6.87,7.12-6.46,2,.35,5.94,5.82,5.75,8.08S209.69,357.78,206.12,357.69Z" transform="translate(-58.38 -132.62)"/><path class="cls-15" d="M194.57,347a1.9,1.9,0,0,1-1.92,1.91c-1.53.15-2.66-.58-2.64-2.28a1.8,1.8,0,0,1,1.83-1.89C193.2,344.75,194.56,345.15,194.57,347Z" transform="translate(-58.38 -132.62)"/><path class="cls-6" d="M129.12,187.14a20.87,20.87,0,0,1,0-3.9c.49-3.54,2.35-5.5,6.24-6,7.26-.92,14.28.67,21,2.54,32.67,9.14,52,31,59.1,64,.71,3.32,3.84,8.16,1.4,9.77s-5-3.52-7.56-5.52c-11.77-9-23.64-18-38.39-21.6-8.47-2.06-16.95-4.81-25.93-2.27-3.83,1.09-6.2-.45-7.86-4.57C133.1,209.54,127.74,200,129.12,187.14Z" transform="translate(-58.38 -132.62)"/><path class="cls-6" d="M224.32,254.78c-4.07-5.72-4-11.13-.3-17.36,7.13-11.9,14.66-23.3,25.06-32.72,14.16-12.81,30.63-15.4,48.49-11.44,11.15,2.47,16.35,10.66,14.51,22-1.51,9.28-6.22,17.2-12,24.46-1.61,2-2.08.76-3.11-1.17-4.46-8.44-6.84-9.06-16.09-5.21-3.24,1.35-9.28-.07-11.77-2.82-.71-.78-1.24-1.75-2-2.52-4.19-4.41-9.31-6.79-15.31-5.17-5.69,1.54-9.62,6.69-9.41,11.64.38,9-5.33,12.3-11.34,15.71-2.41,1.36-3.79,4.33-7,4.39Z" transform="translate(-58.38 -132.62)"/><path class="cls-16" d="M278.81,295.6c-8.85-.18-17.24-3-25.85-4.51-2.1-.38-3.36-1.42-2.34-3.56,1.27-2.68.86-5.59,1.52-8.3,1.59-6.57,5.25-11.72,12-13.53,6.29-1.68,11.79.45,16.41,5,4,3.89,5.52,8.66,6.45,14.08C288.9,295.72,289.19,295.67,278.81,295.6Z" transform="translate(-58.38 -132.62)"/><path class="cls-8" d="M276.13,362.47c0,3.91.26,7.83-.06,11.71a10.91,10.91,0,0,1-15.63,9.1c-1.48-.66-1.74-1.88-1.72-3.41,0-2.83-.23-5.67-.2-8.51a8.39,8.39,0,0,1,.9-2.55c1.75.72,3.76,3.11,5.11-.17.87-2.12-1.42-4-1.51-6-.19-4.54-.89-9.07.81-13.63,1.39-3.76,3.86-4.67,7.34-4.69,3,0,4.69,1,4.63,4.3-.09,4.61,0,9.23,0,13.84Z" transform="translate(-58.38 -132.62)"/><path class="cls-16" d="M301.51,297.92c-1.42-.11-2.84-.35-4.26-.33-3.13.05-4.52-1.39-4.42-4.52.19-5.36,0-10.61-1.94-15.8-.57-1.55-3.46-3.65-.85-5.33,2.21-1.42,4.62-2.61,7.92-1.1A20,20,0,0,1,310,286a21.38,21.38,0,0,1,.17,3.21C310.56,297.84,310.18,298.22,301.51,297.92Z" transform="translate(-58.38 -132.62)"/><path class="cls-17" d="M269.52,314.73c-10-.14-18.42-8.26-18.6-17.41,0-1.57,1-1.74,1.85-1.54,5.17,1.14,10.82,1.48,15.28,4,4.27,2.36,6.52,7.74,11.08,10.4.89.52.36,1.92-.78,2.37C275.4,313.68,272.56,315.39,269.52,314.73Z" transform="translate(-58.38 -132.62)"/><path class="cls-18" d="M252.66,241.76a21.33,21.33,0,0,1-3.81.14,4,4,0,0,1-2.66-1.29c-.95-1.42,2.29-9.78,4.15-11.62a6.87,6.87,0,0,1,8.75-1.36c3.06,1.58,8.11,4.76,6.42,6.57-2.47,2.65-3.61,8.31-9.17,7.58A31.36,31.36,0,0,0,252.66,241.76Z" transform="translate(-58.38 -132.62)"/><path class="cls-19" d="M292,314.75c-6.07,0-6.29-.52-3.1-6.3a13.21,13.21,0,0,0,1.72-3.73c.69-3.93,2.1-4,4.32-1.05a28.19,28.19,0,0,0,2.39,3.33c1.72,1.67,3.64,3.13,5.47,4.68-2.89,1.05-5.3,3.45-8.7,3.08A18.38,18.38,0,0,0,292,314.75Z" transform="translate(-58.38 -132.62)"/><path class="cls-20" d="M293,242.12c-1.09,2.42-4.91,4.84-7.13,5-4.28.23-.82-4.75-2.74-7.28-2.23-2.95,1.56-3.83,3.64-4.34C289.9,234.71,292.63,237.35,293,242.12Z" transform="translate(-58.38 -132.62)"/><path class="cls-6" d="M224.12,254.55l-.93,1.46c-.82-1.5.18-1.34,1.13-1.23Z" transform="translate(-58.38 -132.62)"/><text class="cls-21" transform="translate(334.97 147.75)">ПЧЕЛА</text><text class="cls-22" transform="translate(334.97 261.31)">СЕРВИС</text></g></svg>